<svg xmlns="http://www.w3.org/2000/svg" xmlns:xlink="http://www.w3.org/1999/xlink" width="2315.03" height="9697.145" viewBox="0 0 2315.03 9697.145">
  <defs>
    <linearGradient id="linear-gradient" x1="0.136" y1="0.5" x2="0.758" y2="0.5" gradientUnits="objectBoundingBox">
      <stop offset="0" stop-color="#ff8989"/>
      <stop offset="0.5" stop-color="#fdc880"/>
      <stop offset="1" stop-color="#a54cfd"/>
    </linearGradient>
  </defs>
  <g id="Group_41090" data-name="Group 41090" transform="translate(8946.069 11186.14)">
    <path id="Line" d="M794.316,9687.73l-72.7-108.892c-58.745-87.937-119.094-178.277-178.589-268.547a103.376,103.376,0,0,1-51.164,25.412c-26.873,4.972-54.493-.783-75.779-15.794-21.333-15.035-36.265-39.344-40.956-66.685-4.687-27.315,1.264-55.275,16.327-76.709,15.081-21.475,39.265-36.324,66.343-40.733a102.5,102.5,0,0,1,53.474,5.442c10.274-33.359,21.416-62.8,33.935-89.7,89.829-193.017,267.46-336.121,463.576-373.469,45.616-8.688,91.671-12.241,136.208-15.677,60.911-4.7,118.443-9.136,172.987-25.7,82.685-25.108,166.391-97,158.655-180.765-8.609-93.282-121.985-149.461-230.528-163.758-24.459-3.223-49.192-5.491-75.376-7.9-101.581-9.322-206.621-18.964-291.412-85.752C813.848,8146.948,775.067,8071,767.166,7978.867c-10.631-123.937,36.4-260.844,122.728-357.294,96.645-107.971,223.577-176.173,346.329-242.128,46.593-25.034,94.772-50.921,139.88-78.334,90.144-54.783,299.185-204.523,293.4-411.306-3.979-142.351-108.343-265.227-205.852-369.228l-6.3-6.719c-104.687-111.616-223.341-238.122-249.159-401.479-15.988-101.16,23.488-217.771,98.232-290.173,58.237-56.411,129.56-79.26,200.829-64.336,21.08,4.412,41,11.734,60.261,18.818,28.7,10.553,55.811,20.521,79.676,17.9,24.872-2.73,49.5-22.328,53.772-42.794,2.473-11.866-.675-26.586-8.641-40.376-15.2-26.319-42.564-48.837-69.723-57.377-39.784-12.514-89.812-7.785-140.875,13.314-34.836,14.391-67.692,33.909-102.477,54.573-33.044,19.63-67.212,39.927-104.095,56.084-59.079,25.875-123.825,38.757-190.256,38.759-76.535,0-155.312-17.088-230.342-51.1C718.031,5703.8,607.7,5593.17,551.847,5462.161c-109.575-257.014-35.711-585.36,179.624-798.476,110.644-109.5,252.634-187.967,411.706-230.525,26.76-127.115,107.431-235.235,213.411-279.873,121.556-51.212,249.656-20.172,373.539,9.848,117.073,28.368,227.653,55.164,323.909,12.205,65.052-29.037,111.352-90.028,130.369-171.735,24.1-103.566-.944-220.092-63.813-296.862-106.4-129.938-304.025-194.571-528.66-172.9-41.1,3.958-90.636,11.6-128.408,34.758,20.109,7.892,40.616,18.912,56.724,37.248,25.689,29.248,33.413,71.064,20.157,109.132-13.092,37.6-43.329,63.833-80.884,70.178a101.678,101.678,0,0,1-16.911,1.429c-44.793,0-84.651-30.305-102.344-79.612a174.789,174.789,0,0,1-7.58-87.961c-143.241-33.432-295.652-27.546-443.667-21.827-62.376,2.41-126.874,4.9-189.96,4.45-289.1-2.079-629.455-107.514-717.692-397.2-52.272-171.6,4.709-436.719,253.339-613.319,187.412-133.14,419.739-178.875,624.715-219.226l624.5-122.917c98.216-19.322,199.772-39.3,283.231-92.222,65.263-41.385,138.377-124.391,129.651-222.126-4.428-49.545-27.432-92.169-68.375-126.686-77.492-65.332-217.128-99.124-355.733-86.091-25.649,2.413-51.795,5.327-78.2,8.268-67.788,7.552-139.02,15.485-209.091,15.487-115.038,0-226.98-21.374-315.665-100.917-39.308-35.252-72.505-88.4-107.652-144.673-25.815-41.331-49.618-78.032-73.149-107.988q-58.442,48.541-121.251,91.443c-17.852,12.189-55.016,37.563-98.028,27.448-49.011-11.528-79.985-50.488-82.857-104.221-3.461-64.756,35.6-149.24,99.268-171.792,85.757-30.372,152.859-7.4,208.232,38.71,86.224-79.373,162.9-168.122,226.606-262.81,64.556-95.94,113.585-201.715,154.3-332.885,6.013-19.376,12.14-41.119,18.684-64.32,22.938-81.32,51.467-182.4,98.434-266.062-23.04-50.421-33.549-102.657-39.769-142.067-3.616-22.889-6.464-45.929-9.3-68.962-5.355-43.45-10.413-84.49-20.605-124.31l82.279-21.62c11.575,45.225,17.216,90.994,22.672,135.255,2.717,22.052,5.428,44.112,8.891,66.031,3.32,21.04,8.024,46.357,15.664,72.418,45.961-48.63,104.54-80.337,180.964-80.179,57.815.12,108.519,24.521,135.633,65.27,26.985,40.587,30,96.721,7.871,146.511-24.391,54.882-75.82,95.8-134.219,106.792-68.224,12.836-143-15.532-196.487-73.015-30.293,65.777-51.748,141.843-70.3,207.606-6.765,23.986-13.111,46.459-19.328,66.489-43.285,139.461-95.763,252.444-165.149,355.563C924.222,1158.8,843.8,1252.048,753.477,1335.491c29.832,37.446,56.061,79.445,80.436,118.471,31.828,50.958,61.891,99.089,92.165,126.24,114.508,102.7,289.7,83.187,459.129,64.312,26.887-3,53.512-5.959,79.632-8.415,127.279-11.969,303.915,9.5,417.955,105.643,58.1,48.98,92.216,113,98.663,185.129,10.04,112.453-56.38,231.346-169.213,302.9-96.847,61.41-211.213,83.909-312.117,103.761l-624.5,122.916c-196.647,38.711-419.532,82.588-592.129,205.2-154.643,109.843-280.18,322.835-220.912,517.4,48.979,160.8,242.059,333.631,637.075,336.471,61.163.439,124.687-2.015,186.119-4.389,159.33-6.156,323.524-12.5,482.384,27.933a164.5,164.5,0,0,1,16-17.313c57.357-53.743,136.863-67.585,199.72-73.639,256.43-24.741,475.9,49.483,602.125,203.643,80.51,98.313,111.6,240.712,81.129,371.626-25.284,108.632-88.8,190.592-178.835,230.783-122.454,54.65-252.337,23.178-377.945-7.259-115.76-28.049-225.1-54.544-321.137-14.083-70.061,29.51-125.723,97.031-152.757,179.858,87.167-15.105,178.349-19.946,271.413-13.795,144.373,9.544,345.175,51.577,481.924,197.621,155.325,165.868,147.544,394.119,50.285,518.965-67.132,86.171-178.255,133.494-295.213,133.5a438.372,438.372,0,0,1-163.31-31.621c-131.724-52.963-245.764-163.134-338.953-327.453-72.868-128.466-109.5-250.545-109.09-363.332-132.736,40.66-251.375,108.4-342.654,198.739-190.712,188.747-256.912,477.711-160.987,702.709,47.516,111.45,142.056,205.871,259.38,259.05,118.469,53.7,246.827,58.035,352.16,11.9,32.107-14.065,62.576-32.165,94.833-51.327,35.84-21.291,72.9-43.307,113.375-60.026,69.248-28.615,139.624-34.232,198.163-15.818,47.723,15,91.795,50.94,117.888,96.129,18.784,32.513,25.336,68.632,18.443,101.693-11.961,57.278-65.7,103.79-127.78,110.6a157.422,157.422,0,0,1-17.172.929c-36.753,0-70.445-12.389-100.651-23.495-17.177-6.314-33.4-12.281-48.468-15.434-55.236-11.566-98.405,16.591-124.892,42.248-54.589,52.876-84.624,141-73.039,214.3,21.652,137,125.964,248.212,226.841,355.766l6.313,6.732c108.356,115.569,224.364,253.337,229.192,426.106,4.973,177.615-117,355.342-334.641,487.606-47.028,28.582-96.213,55.009-143.779,80.566-121.643,65.358-236.54,127.092-323.189,223.9-69.877,78.068-109.525,192.674-101.008,291.976,4.044,47.154,21.143,113.035,79.635,159.107,65.115,51.29,153.421,59.395,246.912,67.975,25.844,2.371,52.567,4.824,78.667,8.261,131.664,17.344,290.335,90.9,304.2,241.144,12.079,130.8-100.969,235.483-218.884,271.29-63.339,19.232-128.205,24.237-190.936,29.074-44.192,3.41-85.932,6.63-126.959,14.444-169.8,32.335-323.988,157.081-402.4,325.56-12.087,25.966-22.813,55.071-32.8,88.979-2.608,8.866-4.219,20.317-5.923,32.441q-.38,2.7-.77,5.446c69.3,105.69,140.46,212.219,209.407,315.432l72.044,107.924Zm-319.579-467.2a21.621,21.621,0,0,0-3.455.282c-4.608.751-8.663,2.914-10.581,5.646-1.932,2.751-2.631,7.348-1.831,12.012.8,4.688,3.011,8.8,5.759,10.738s7.34,2.619,11.96,1.767c4.644-.859,8.719-3.15,10.633-5.977a44.64,44.64,0,0,0,5.191-11.548c-3.219-4.525-6.4-8.427-9.4-10.658A14.146,14.146,0,0,0,474.738,9220.534ZM1219.194,4504.5c-5.915,103.214,26.757,218.438,97.112,342.473,83.384,147.031,183.177,244.705,296.607,290.314,131.051,52.688,286.013,20.364,360.453-75.189,94.041-120.717,49.745-304.9-45.228-406.321-117.815-125.823-296.577-162.416-425.8-170.958A1044.15,1044.15,0,0,0,1219.194,4504.5Zm196.227-861.649a86.4,86.4,0,0,0,4.733,34.7c.931,2.594,9.571,25.316,25.4,22.651,9.456-1.6,13.427-10.237,14.693-13.878,2.32-6.659,2.62-16.256-3.493-23.216C1449.1,3654.394,1432.086,3648.2,1415.421,3642.852ZM558.8,1307.979c-14.11,0-28.917,2.652-44.677,8.234-19.724,6.987-44.319,50.7-42.44,85.832,1.133,21.205,10.8,23.479,17.2,24.984,2.6.613,10.137-.52,31.32-14.983q55.622-37.958,107.808-80.793C606.325,1316.23,583.668,1307.979,558.8,1307.979ZM1291.6,350.5q2.464,3.52,5.075,6.941c28.288,37.017,79.522,70.1,130.212,60.565,30.951-5.824,59.305-28.386,72.235-57.477,9.836-22.129,9.493-47.453-.852-63.012-13.333-20.037-42.487-27.231-65.321-27.278C1373.177,270.125,1327.567,302.162,1291.6,350.5Z" transform="translate(-8909.678 -11176.726)" fill="url(#linear-gradient)"/>
  </g>
</svg>
