<svg width="352" height="320" viewBox="0 0 352 320" fill="none" xmlns="http://www.w3.org/2000/svg">
<g clip-path="url(#clip0_619_504)">
<mask id="mask0_619_504" style="mask-type:luminance" maskUnits="userSpaceOnUse" x="0" y="0" width="352" height="320">
<path d="M342 0H10C4.47715 0 0 4.47715 0 10V310C0 315.523 4.47715 320 10 320H342C347.523 320 352 315.523 352 310V10C352 4.47715 347.523 0 342 0Z" fill="white"/>
</mask>
<g mask="url(#mask0_619_504)">
<path d="M45 40H157C158.326 40 159.598 40.5268 160.536 41.4645C161.473 42.4021 162 43.6739 162 45V105C162 109.596 161.095 114.148 159.336 118.394C157.577 122.64 154.999 126.499 151.749 129.749C148.499 132.999 144.64 135.577 140.394 137.336C136.148 139.095 131.596 140 127 140H45C43.6739 140 42.4021 139.473 41.4645 138.536C40.5268 137.598 40 136.326 40 135V45C40 43.6739 40.5268 42.4021 41.4645 41.4645C42.4021 40.5268 43.6739 40 45 40Z" fill="#9342E1"/>
<path d="M136.286 108H162V110C162 117.956 158.839 125.587 153.213 131.213C147.587 136.839 139.956 140 132 140V112.286C132 111.149 132.452 110.059 133.255 109.255C134.059 108.452 135.149 108 136.286 108Z" fill="#752D9D"/>
<path d="M205 40H317C318.326 40 319.598 40.5268 320.536 41.4645C321.473 42.4021 322 43.6739 322 45V105C322 109.596 321.095 114.148 319.336 118.394C317.577 122.64 314.999 126.499 311.749 129.749C308.499 132.999 304.64 135.577 300.394 137.336C296.148 139.095 291.596 140 287 140H205C203.674 140 202.402 139.473 201.464 138.536C200.527 137.598 200 136.326 200 135V45C200 43.6739 200.527 42.4021 201.464 41.4645C202.402 40.5268 203.674 40 205 40Z" fill="#F0BB77"/>
<path d="M296.286 108H322V110C322 117.956 318.839 125.587 313.213 131.213C307.587 136.839 299.956 140 292 140V112.286C292 111.149 292.452 110.059 293.255 109.255C294.059 108.452 295.149 108 296.286 108Z" fill="#D8A06D"/>
<path d="M100 233H212C213.326 233 214.598 233.527 215.536 234.464C216.473 235.402 217 236.674 217 238V298C217 302.596 216.095 307.148 214.336 311.394C212.577 315.64 209.999 319.499 206.749 322.749C203.499 325.999 199.64 328.577 195.394 330.336C191.148 332.095 186.596 333 182 333H100C98.6739 333 97.4021 332.473 96.4645 331.536C95.5268 330.598 95 329.326 95 328V238C95 236.674 95.5268 235.402 96.4645 234.464C97.4021 233.527 98.6739 233 100 233Z" fill="#F0BB77"/>
<path d="M191.286 301H217V303C217 310.956 213.839 318.587 208.213 324.213C202.587 329.839 194.956 333 187 333V305.286C187 304.149 187.452 303.059 188.255 302.255C189.059 301.452 190.149 301 191.286 301Z" fill="#D8A06D"/>
<path d="M-42 233H70C71.3261 233 72.5979 233.527 73.5355 234.464C74.4732 235.402 75 236.674 75 238V298C75 302.596 74.0947 307.148 72.3358 311.394C70.5769 315.64 67.9988 319.499 64.7487 322.749C61.4987 325.999 57.6403 328.577 53.3939 330.336C49.1475 332.095 44.5963 333 40 333H-42C-43.3261 333 -44.5979 332.473 -45.5355 331.536C-46.4732 330.598 -47 329.326 -47 328V238C-47 236.674 -46.4732 235.402 -45.5355 234.464C-44.5979 233.527 -43.3261 233 -42 233Z" fill="#E38777"/>
<path d="M49.286 301H75V303C75 310.956 71.8393 318.587 66.2132 324.213C60.5871 329.839 52.9565 333 45 333V305.286C45 304.149 45.4516 303.059 46.2553 302.255C47.0591 301.452 48.1493 301 49.286 301Z" fill="#BF6959"/>
<g filter="url(#filter0_d_619_504)">
<path d="M244 154H356C357.326 154 358.598 154.527 359.536 155.464C360.473 156.402 361 157.674 361 159V219C361 223.596 360.095 228.148 358.336 232.394C356.577 236.64 353.999 240.499 350.749 243.749C347.499 246.999 343.64 249.577 339.394 251.336C335.148 253.095 330.596 254 326 254H244C242.674 254 241.402 253.473 240.464 252.536C239.527 251.598 239 250.326 239 249V159C239 157.674 239.527 156.402 240.464 155.464C241.402 154.527 242.674 154 244 154Z" fill="#E38777"/>
</g>
<path d="M335.286 222H361V224C361 231.956 357.839 239.587 352.213 245.213C346.587 250.839 338.956 254 331 254V226.286C331 225.149 331.452 224.059 332.255 223.255C333.059 222.452 334.149 222 335.286 222Z" fill="#BF6959"/>
<path d="M171 132H115C113.895 132 113 132.895 113 134V168C113 169.105 113.895 170 115 170H171C172.105 170 173 169.105 173 168V134C173 132.895 172.105 132 171 132Z" fill="#080808"/>
<path d="M129.248 145.576V157H130.768V152.12H134.48C134.789 152.106 135.097 152.164 135.38 152.288C135.594 152.392 135.781 152.546 135.924 152.736C136.066 152.933 136.168 153.156 136.224 153.392C136.291 153.643 136.344 153.907 136.384 154.184C136.439 154.464 136.472 154.747 136.484 155.032C136.495 155.32 136.505 155.589 136.516 155.84C136.524 156.068 136.548 156.295 136.588 156.52C136.612 156.697 136.686 156.863 136.8 157H138.5C138.338 156.804 138.216 156.579 138.14 156.336C138.058 156.077 137.997 155.812 137.956 155.544C137.913 155.263 137.886 154.98 137.876 154.696C137.865 154.408 137.849 154.125 137.828 153.848C137.797 153.579 137.752 153.312 137.692 153.048C137.638 152.802 137.546 152.566 137.42 152.348C137.293 152.136 137.123 151.953 136.92 151.812C136.677 151.648 136.401 151.539 136.112 151.492V151.46C136.737 151.317 137.281 150.934 137.624 150.392C137.948 149.84 138.113 149.208 138.1 148.568C138.12 148.157 138.048 147.747 137.889 147.368C137.73 146.988 137.487 146.649 137.18 146.376C136.456 145.806 135.548 145.521 134.628 145.576H129.248ZM133.936 150.84H130.768V146.856H134.544C134.827 146.829 135.113 146.864 135.382 146.958C135.65 147.052 135.895 147.202 136.1 147.4C136.431 147.793 136.602 148.295 136.58 148.808C136.593 149.16 136.517 149.509 136.36 149.824C136.224 150.077 136.025 150.292 135.784 150.448C135.528 150.609 135.242 150.715 134.944 150.76C134.611 150.814 134.274 150.841 133.936 150.84ZM140.976 152.872C140.969 152.419 141.036 151.967 141.176 151.536C141.293 151.175 141.481 150.84 141.728 150.552C141.955 150.291 142.236 150.084 142.552 149.944C142.867 149.805 143.208 149.734 143.552 149.736C143.896 149.734 144.237 149.805 144.552 149.944C144.868 150.084 145.149 150.291 145.376 150.552C145.623 150.84 145.811 151.175 145.928 151.536C146.068 151.967 146.135 152.419 146.128 152.872C146.135 153.325 146.068 153.777 145.928 154.208C145.812 154.567 145.624 154.899 145.376 155.184C145.148 155.441 144.867 155.645 144.552 155.784C144.237 155.923 143.896 155.994 143.552 155.992C143.208 155.994 142.867 155.923 142.552 155.784C142.238 155.645 141.957 155.441 141.728 155.184C141.48 154.899 141.292 154.567 141.176 154.208C141.036 153.777 140.969 153.325 140.976 152.872ZM139.536 152.872C139.531 153.449 139.617 154.023 139.792 154.572C139.952 155.076 140.213 155.541 140.56 155.94C140.908 156.334 141.34 156.646 141.824 156.852C142.371 157.08 142.96 157.191 143.552 157.18C144.147 157.193 144.739 157.081 145.288 156.852C145.769 156.644 146.198 156.333 146.544 155.94C146.891 155.541 147.152 155.076 147.312 154.572C147.487 154.023 147.573 153.449 147.568 152.872C147.572 152.295 147.486 151.722 147.312 151.172C147.153 150.665 146.892 150.197 146.544 149.796C146.197 149.402 145.768 149.088 145.288 148.876C144.74 148.642 144.148 148.527 143.552 148.54C142.959 148.529 142.37 148.643 141.824 148.876C141.341 149.087 140.909 149.401 140.56 149.796C140.212 150.197 139.951 150.665 139.792 151.172C139.618 151.722 139.532 152.295 139.536 152.872ZM149.216 145.572V157H150.576V155.9H150.608C150.751 156.139 150.939 156.348 151.16 156.516C151.374 156.678 151.61 156.81 151.86 156.908C152.099 157.001 152.347 157.069 152.6 157.112C152.825 157.152 153.052 157.174 153.28 157.176C153.85 157.188 154.416 157.074 154.936 156.84C155.396 156.628 155.801 156.313 156.12 155.92C156.441 155.515 156.679 155.05 156.82 154.552C156.977 154.011 157.055 153.451 157.052 152.888C157.055 152.324 156.975 151.764 156.812 151.224C156.663 150.722 156.422 150.253 156.1 149.84C155.782 149.437 155.377 149.112 154.916 148.888C154.393 148.643 153.821 148.522 153.244 148.536C152.7 148.53 152.161 148.636 151.66 148.848C151.197 149.04 150.821 149.396 150.604 149.848H150.572V145.576L149.216 145.572ZM155.616 152.788C155.617 153.186 155.574 153.583 155.488 153.972C155.412 154.337 155.271 154.685 155.072 155C154.881 155.298 154.62 155.545 154.312 155.72C153.951 155.913 153.545 156.006 153.136 155.992C152.72 156.004 152.308 155.914 151.936 155.728C151.616 155.56 151.339 155.321 151.128 155.028C150.914 154.727 150.759 154.387 150.672 154.028C150.575 153.644 150.527 153.248 150.528 152.852C150.528 152.469 150.574 152.088 150.664 151.716C150.748 151.358 150.897 151.019 151.104 150.716C151.308 150.422 151.576 150.178 151.888 150.004C152.247 149.813 152.65 149.72 153.056 149.732C153.453 149.723 153.845 149.811 154.2 149.988C154.517 150.151 154.791 150.387 155 150.676C155.213 150.974 155.37 151.307 155.464 151.66C155.566 152.029 155.617 152.41 155.616 152.792V152.788Z" fill="white"/>
<g filter="url(#filter1_d_619_504)">
<path d="M124.608 134.713C124.886 134.704 125.155 134.614 125.383 134.455C125.61 134.295 125.787 134.073 125.891 133.815C125.994 133.557 126.02 133.275 125.966 133.002C125.912 132.73 125.779 132.479 125.585 132.28L103.365 109.425C103.17 109.228 102.921 109.094 102.649 109.04C102.378 108.986 102.096 109.016 101.841 109.124C101.586 109.232 101.37 109.415 101.22 109.648C101.07 109.88 100.993 110.153 101 110.43V144C100.994 144.276 101.071 144.548 101.222 144.78C101.372 145.012 101.589 145.194 101.843 145.302C102.098 145.409 102.379 145.438 102.651 145.384C102.922 145.331 103.171 145.197 103.365 145L110.136 138.039L114.281 148.127C114.349 148.298 114.451 148.453 114.58 148.584C114.709 148.715 114.863 148.819 115.033 148.89C115.203 148.96 115.385 148.996 115.569 148.996C115.753 148.995 115.935 148.958 116.104 148.886L119.945 147.212C120.287 147.056 120.555 146.773 120.692 146.423C120.83 146.074 120.827 145.684 120.683 145.337L116.321 134.713H124.608Z" fill="#0F0F0F" stroke="white" stroke-width="3"/>
</g>
<path d="M320 201H266C264.895 201 264 201.895 264 203V237C264 238.105 264.895 239 266 239H320C321.105 239 322 238.105 322 237V203C322 201.895 321.105 201 320 201Z" fill="#080808"/>
<path d="M281.768 219.488V215.856H284.808C285.121 215.855 285.434 215.874 285.744 215.912C286.017 215.943 286.28 216.027 286.52 216.16C286.744 216.288 286.927 216.476 287.048 216.704C287.19 217.003 287.256 217.333 287.24 217.664C287.259 217.92 287.217 218.178 287.118 218.415C287.02 218.653 286.867 218.864 286.672 219.032C286.117 219.384 285.463 219.544 284.808 219.488H281.768ZM280.248 214.576V226H285.768C286.282 226.011 286.793 225.915 287.268 225.72C287.676 225.55 288.046 225.299 288.356 224.984C288.647 224.684 288.873 224.327 289.02 223.936C289.167 223.547 289.241 223.135 289.24 222.72C289.259 222.077 289.062 221.446 288.68 220.928C288.278 220.42 287.703 220.078 287.064 219.968V219.936C287.576 219.748 288.015 219.404 288.32 218.952C288.621 218.482 288.774 217.933 288.76 217.376C288.777 216.862 288.641 216.355 288.368 215.92C288.125 215.543 287.799 215.226 287.416 214.992C287.226 214.878 287.018 214.796 286.8 214.752C286.544 214.696 286.285 214.656 286.024 214.632C285.747 214.605 285.467 214.589 285.184 214.584C284.901 214.579 284.637 214.576 284.392 214.576H280.248ZM281.768 224.72V220.768H285.24C285.552 220.767 285.862 220.797 286.168 220.856C286.448 220.906 286.717 221.008 286.96 221.156C287.19 221.301 287.38 221.502 287.512 221.74C287.66 222.026 287.732 222.346 287.72 222.668C287.735 222.944 287.692 223.22 287.594 223.478C287.497 223.736 287.346 223.971 287.152 224.168C286.719 224.55 286.153 224.746 285.576 224.712L281.768 224.72ZM296.728 221.072H291.976C291.996 220.763 292.066 220.459 292.184 220.172C292.297 219.896 292.459 219.644 292.664 219.428C292.87 219.214 293.118 219.044 293.392 218.928C293.693 218.802 294.017 218.739 294.344 218.744C294.665 218.74 294.984 218.803 295.28 218.928C295.555 219.046 295.805 219.216 296.016 219.428C296.229 219.641 296.399 219.894 296.516 220.172C296.636 220.458 296.708 220.762 296.728 221.072ZM298.04 223.372H296.7C296.62 223.855 296.36 224.289 295.972 224.588C295.555 224.869 295.059 225.009 294.556 224.988C294.155 224.997 293.757 224.921 293.388 224.764C293.075 224.627 292.796 224.422 292.572 224.164C292.355 223.913 292.194 223.618 292.1 223.3C292.003 222.965 291.96 222.617 291.972 222.268H298.164C298.183 221.736 298.137 221.204 298.028 220.684C297.92 220.139 297.714 219.619 297.42 219.148C297.125 218.677 296.725 218.28 296.252 217.988C295.697 217.666 295.062 217.508 294.42 217.532C293.883 217.526 293.351 217.635 292.86 217.852C292.391 218.062 291.971 218.369 291.628 218.752C291.274 219.149 290.999 219.611 290.82 220.112C290.623 220.666 290.525 221.251 290.532 221.84C290.547 222.431 290.641 223.018 290.812 223.584C290.963 224.089 291.218 224.558 291.56 224.96C291.895 225.349 292.313 225.656 292.784 225.86C293.329 226.085 293.915 226.194 294.504 226.18C295.339 226.213 296.161 225.967 296.84 225.48C297.492 224.956 297.921 224.204 298.04 223.376V223.372ZM299.576 217.724V226H300.936V221.328C300.933 220.979 300.984 220.633 301.088 220.3C301.183 219.997 301.338 219.717 301.544 219.476C301.751 219.238 302.012 219.052 302.304 218.932C302.648 218.797 303.015 218.731 303.384 218.74C303.609 218.727 303.834 218.761 304.046 218.838C304.258 218.915 304.452 219.034 304.616 219.188C304.769 219.349 304.887 219.54 304.964 219.748C305.041 219.956 305.075 220.178 305.064 220.4V226H306.424V220.56C306.428 220.148 306.382 219.737 306.288 219.336C306.207 218.986 306.045 218.66 305.816 218.384C305.578 218.107 305.276 217.893 304.936 217.76C304.501 217.598 304.04 217.522 303.576 217.536C303.032 217.504 302.49 217.628 302.013 217.894C301.537 218.16 301.147 218.556 300.888 219.036H300.856V217.728L299.576 217.724Z" fill="white"/>
<g filter="url(#filter2_d_619_504)">
<path d="M275.608 203.713C275.886 203.704 276.155 203.614 276.383 203.455C276.61 203.295 276.787 203.073 276.891 202.815C276.994 202.557 277.02 202.275 276.966 202.002C276.912 201.73 276.779 201.479 276.585 201.28L254.365 178.425C254.17 178.228 253.921 178.094 253.649 178.04C253.378 177.986 253.096 178.016 252.841 178.124C252.586 178.232 252.37 178.415 252.22 178.648C252.07 178.88 251.993 179.153 252 179.43V213C251.994 213.276 252.071 213.548 252.222 213.78C252.372 214.012 252.589 214.194 252.843 214.302C253.098 214.409 253.379 214.438 253.651 214.384C253.922 214.331 254.171 214.197 254.365 214L261.136 207.039L265.281 217.127C265.349 217.298 265.451 217.453 265.58 217.584C265.709 217.715 265.863 217.819 266.033 217.89C266.203 217.96 266.385 217.996 266.569 217.996C266.753 217.995 266.935 217.958 267.104 217.886L270.945 216.212C271.287 216.056 271.555 215.773 271.692 215.423C271.83 215.074 271.827 214.684 271.683 214.337L267.321 203.713H275.608Z" fill="#0F0F0F" stroke="white" stroke-width="3"/>
</g>
</g>
</g>
<defs>
<filter id="filter0_d_619_504" x="219" y="134" width="162" height="140" filterUnits="userSpaceOnUse" color-interpolation-filters="sRGB">
<feFlood flood-opacity="0" result="BackgroundImageFix"/>
<feColorMatrix in="SourceAlpha" type="matrix" values="0 0 0 0 0 0 0 0 0 0 0 0 0 0 0 0 0 0 127 0" result="hardAlpha"/>
<feOffset/>
<feGaussianBlur stdDeviation="10"/>
<feColorMatrix type="matrix" values="0 0 0 0 0 0 0 0 0 0 0 0 0 0 0 0 0 0 0.302 0"/>
<feBlend mode="normal" in2="BackgroundImageFix" result="effect1_dropShadow_619_504"/>
<feBlend mode="normal" in="SourceGraphic" in2="effect1_dropShadow_619_504" result="shape"/>
</filter>
<filter id="filter1_d_619_504" x="74.4995" y="82.5139" width="77.9941" height="92.9818" filterUnits="userSpaceOnUse" color-interpolation-filters="sRGB">
<feFlood flood-opacity="0" result="BackgroundImageFix"/>
<feColorMatrix in="SourceAlpha" type="matrix" values="0 0 0 0 0 0 0 0 0 0 0 0 0 0 0 0 0 0 127 0" result="hardAlpha"/>
<feOffset/>
<feGaussianBlur stdDeviation="12.5"/>
<feColorMatrix type="matrix" values="0 0 0 0 0 0 0 0 0 0 0 0 0 0 0 0 0 0 0.161 0"/>
<feBlend mode="normal" in2="BackgroundImageFix" result="effect1_dropShadow_619_504"/>
<feBlend mode="normal" in="SourceGraphic" in2="effect1_dropShadow_619_504" result="shape"/>
</filter>
<filter id="filter2_d_619_504" x="225.5" y="151.514" width="77.9941" height="92.9818" filterUnits="userSpaceOnUse" color-interpolation-filters="sRGB">
<feFlood flood-opacity="0" result="BackgroundImageFix"/>
<feColorMatrix in="SourceAlpha" type="matrix" values="0 0 0 0 0 0 0 0 0 0 0 0 0 0 0 0 0 0 127 0" result="hardAlpha"/>
<feOffset/>
<feGaussianBlur stdDeviation="12.5"/>
<feColorMatrix type="matrix" values="0 0 0 0 0 0 0 0 0 0 0 0 0 0 0 0 0 0 0.161 0"/>
<feBlend mode="normal" in2="BackgroundImageFix" result="effect1_dropShadow_619_504"/>
<feBlend mode="normal" in="SourceGraphic" in2="effect1_dropShadow_619_504" result="shape"/>
</filter>
<clipPath id="clip0_619_504">
<rect width="352" height="320" fill="white"/>
</clipPath>
</defs>
</svg>
