<svg width="352" height="320" viewBox="0 0 352 320" fill="none" xmlns="http://www.w3.org/2000/svg">
<g clip-path="url(#clip0_619_536)">
<path d="M197 40H40C34.4772 40 30 44.4772 30 50V85C30 90.5228 34.4772 95 40 95H197C202.523 95 207 90.5228 207 85V50C207 44.4772 202.523 40 197 40Z" fill="#F0BB77"/>
<path d="M207 67.5H277V137.5" stroke="white" stroke-width="4"/>
<path d="M145 144.5H75V214.5" stroke="white" stroke-width="4"/>
<path d="M312 117H155C149.477 117 145 121.477 145 127V162C145 167.523 149.477 172 155 172H312C317.523 172 322 167.523 322 162V127C322 121.477 317.523 117 312 117Z" fill="#E38777"/>
<path d="M227 214H70C64.4772 214 60 218.477 60 224V259C60 264.523 64.4772 269 70 269H227C232.523 269 237 264.523 237 259V224C237 218.477 232.523 214 227 214Z" fill="#9342E1"/>
<path d="M191.485 149L192.171 147.2H196.525L197.211 149H198.633L195.072 140.38H193.625L190.063 149H191.485ZM192.571 146.093L194.348 141.872L196.125 146.093H192.571ZM200.924 149V145.68C200.89 145.46 200.906 145.236 200.969 145.023C201.032 144.81 201.142 144.614 201.29 144.448C201.438 144.283 201.621 144.152 201.825 144.065C202.03 143.978 202.251 143.938 202.473 143.947C202.727 143.946 202.979 143.994 203.216 144.087L203.349 142.932C203.081 142.831 202.797 142.78 202.511 142.78C202.182 142.768 201.856 142.852 201.574 143.022C201.292 143.192 201.066 143.441 200.924 143.738V142.906H199.661V149H200.924ZM204.91 143.973V147.173C204.894 147.444 204.938 147.716 205.039 147.968C205.139 148.221 205.294 148.448 205.492 148.635C205.69 148.821 205.926 148.962 206.184 149.047C206.442 149.132 206.716 149.159 206.986 149.127C207.444 149.134 207.899 149.043 208.319 148.86L208.154 147.781C207.839 147.91 207.504 147.981 207.164 147.99C207.031 148.008 206.896 147.995 206.768 147.953C206.641 147.911 206.525 147.841 206.428 147.747C206.332 147.654 206.258 147.54 206.212 147.413C206.167 147.287 206.15 147.152 206.164 147.019V143.973H208.087V142.906H206.155V140.951H204.93V142.906H203.83V143.972L204.91 143.973ZM210.585 149H212.3L213.544 144.665L214.788 149H216.5L218.3 142.906H216.971L215.632 147.769L214.21 142.97H212.877L211.455 147.77L210.116 142.906H208.789L210.585 149ZM222.246 149.127C222.669 149.139 223.09 149.066 223.484 148.912C223.879 148.757 224.237 148.525 224.54 148.229C224.842 147.932 225.081 147.578 225.243 147.187C225.405 146.796 225.487 146.376 225.483 145.953C225.487 145.53 225.405 145.11 225.243 144.719C225.081 144.328 224.842 143.974 224.54 143.677C224.237 143.381 223.879 143.149 223.484 142.994C223.09 142.84 222.669 142.767 222.246 142.779C221.823 142.767 221.402 142.84 221.008 142.994C220.613 143.149 220.254 143.381 219.952 143.677C219.65 143.974 219.411 144.328 219.249 144.719C219.087 145.11 219.005 145.53 219.009 145.953C219.005 146.376 219.087 146.796 219.249 147.187C219.411 147.578 219.65 147.932 219.952 148.229C220.254 148.525 220.613 148.757 221.008 148.912C221.402 149.066 221.823 149.139 222.246 149.127ZM220.266 145.953C220.259 145.69 220.305 145.429 220.401 145.185C220.498 144.94 220.643 144.718 220.829 144.532C221.014 144.346 221.235 144.199 221.479 144.1C221.722 144.002 221.983 143.954 222.246 143.96C222.509 143.954 222.77 144.002 223.013 144.1C223.257 144.199 223.478 144.346 223.663 144.532C223.848 144.718 223.994 144.94 224.091 145.185C224.187 145.429 224.233 145.69 224.226 145.953C224.233 146.216 224.187 146.477 224.091 146.721C223.994 146.966 223.848 147.188 223.663 147.374C223.478 147.56 223.257 147.707 223.013 147.806C222.77 147.904 222.509 147.952 222.246 147.946C221.983 147.952 221.722 147.904 221.479 147.806C221.235 147.707 221.014 147.56 220.829 147.374C220.643 147.188 220.498 146.966 220.401 146.721C220.305 146.477 220.259 146.216 220.266 145.953ZM228.226 149V145.68C228.192 145.46 228.208 145.236 228.271 145.023C228.334 144.81 228.444 144.614 228.592 144.448C228.74 144.283 228.923 144.152 229.127 144.065C229.332 143.978 229.553 143.938 229.775 143.947C230.029 143.946 230.281 143.994 230.518 144.087L230.651 142.932C230.383 142.831 230.099 142.78 229.813 142.78C229.484 142.768 229.158 142.852 228.876 143.022C228.594 143.192 228.368 143.441 228.226 143.738V142.906H226.962V149H228.226ZM231.844 140.063V149H233.114V147.191L233.965 146.34L236.008 149H237.6L234.878 145.458L237.5 142.906H235.773L233.113 145.553V140.063H231.844ZM245.269 149.127C247.478 149.127 248.887 147.857 248.887 145.883V140.383H247.567V145.829C247.572 146.122 247.514 146.413 247.397 146.681C247.28 146.95 247.107 147.19 246.888 147.386C246.67 147.582 246.413 147.728 246.133 147.816C245.853 147.903 245.558 147.929 245.267 147.892C244.976 147.928 244.681 147.901 244.402 147.814C244.123 147.726 243.865 147.58 243.647 147.384C243.429 147.189 243.256 146.949 243.138 146.68C243.021 146.412 242.963 146.122 242.967 145.829V140.38H241.647V145.88C241.645 147.857 243.06 149.127 245.269 149.127ZM250.811 151.539H252.068V148.168C252.327 148.49 252.659 148.745 253.037 148.911C253.415 149.078 253.827 149.152 254.239 149.126C254.65 149.136 255.06 149.061 255.441 148.905C255.822 148.75 256.167 148.518 256.454 148.223C256.741 147.928 256.965 147.577 257.11 147.192C257.256 146.807 257.32 146.396 257.3 145.985C257.322 145.571 257.258 145.156 257.114 144.767C256.97 144.378 256.748 144.022 256.461 143.722C256.175 143.422 255.83 143.183 255.448 143.021C255.066 142.859 254.655 142.777 254.24 142.779C253.828 142.753 253.416 142.827 253.038 142.994C252.66 143.16 252.328 143.415 252.069 143.737V142.905H250.811V151.539ZM252.074 145.985C252.066 145.716 252.113 145.448 252.21 145.196C252.308 144.945 252.455 144.716 252.642 144.523C252.83 144.329 253.054 144.175 253.302 144.07C253.55 143.965 253.817 143.91 254.086 143.909C254.353 143.911 254.616 143.967 254.86 144.073C255.104 144.18 255.325 144.335 255.507 144.529C255.69 144.723 255.832 144.952 255.923 145.202C256.015 145.453 256.055 145.719 256.041 145.985C256.054 146.248 256.013 146.511 255.92 146.757C255.828 147.004 255.685 147.229 255.502 147.418C255.318 147.607 255.098 147.756 254.854 147.856C254.611 147.956 254.349 148.005 254.086 148C253.82 148.006 253.555 147.958 253.309 147.858C253.062 147.759 252.837 147.611 252.649 147.422C252.461 147.234 252.313 147.01 252.215 146.763C252.116 146.516 252.068 146.251 252.074 145.985ZM258.352 145.922C258.33 146.336 258.394 146.751 258.538 147.139C258.682 147.528 258.904 147.884 259.191 148.184C259.477 148.484 259.822 148.722 260.204 148.884C260.585 149.047 260.996 149.129 261.411 149.127C261.823 149.153 262.235 149.079 262.613 148.912C262.991 148.746 263.323 148.491 263.582 148.169V149H264.839V140.063H263.582V143.738C263.323 143.416 262.991 143.161 262.613 142.995C262.235 142.828 261.823 142.754 261.411 142.78C261 142.77 260.591 142.846 260.21 143.001C259.829 143.157 259.484 143.389 259.197 143.684C258.91 143.979 258.687 144.33 258.541 144.714C258.396 145.099 258.332 145.511 258.352 145.922ZM261.564 143.91C261.83 143.904 262.094 143.952 262.341 144.051C262.587 144.151 262.811 144.299 262.999 144.487C263.187 144.675 263.335 144.899 263.435 145.145C263.534 145.392 263.582 145.656 263.576 145.922C263.584 146.192 263.538 146.46 263.44 146.711C263.343 146.963 263.196 147.192 263.008 147.386C262.82 147.579 262.596 147.734 262.348 147.839C262.099 147.945 261.833 147.999 261.563 148C261.296 147.998 261.033 147.942 260.789 147.836C260.544 147.729 260.324 147.574 260.142 147.38C259.959 147.186 259.817 146.957 259.726 146.707C259.634 146.456 259.594 146.19 259.608 145.924C259.595 145.661 259.636 145.398 259.729 145.152C259.821 144.905 259.964 144.68 260.147 144.491C260.331 144.302 260.551 144.153 260.795 144.053C261.038 143.953 261.3 143.904 261.563 143.909L261.564 143.91ZM266.364 147.268C266.364 148.461 267.399 149.128 268.719 149.128C269.087 149.145 269.453 149.071 269.785 148.911C270.116 148.752 270.403 148.512 270.619 148.214V149H271.85V145.185C271.85 143.706 270.765 142.779 269.05 142.779C268.56 142.791 268.078 142.907 267.637 143.121C267.195 143.334 266.805 143.64 266.492 144.017L267.285 144.804C267.501 144.55 267.768 144.343 268.069 144.198C268.37 144.052 268.697 143.971 269.031 143.96C269.222 143.938 269.416 143.956 269.6 144.012C269.784 144.068 269.955 144.162 270.101 144.287C270.247 144.412 270.366 144.566 270.45 144.739C270.535 144.912 270.582 145.101 270.59 145.293V145.623C270.104 145.419 269.581 145.322 269.054 145.337C267.454 145.337 266.362 146.125 266.362 147.267L266.364 147.268ZM267.634 147.224C267.634 146.564 268.294 146.297 269.088 146.297C269.603 146.289 270.114 146.388 270.588 146.589C270.58 146.8 270.53 147.008 270.44 147.199C270.35 147.391 270.223 147.562 270.065 147.703C269.908 147.844 269.723 147.952 269.523 148.02C269.323 148.089 269.111 148.116 268.9 148.1C268.184 148.1 267.632 147.775 267.632 147.223L267.634 147.224ZM273.988 143.974V147.174C273.972 147.445 274.016 147.716 274.117 147.969C274.217 148.221 274.372 148.448 274.569 148.634C274.767 148.82 275.003 148.961 275.261 149.046C275.519 149.131 275.792 149.159 276.062 149.127C276.52 149.134 276.975 149.043 277.395 148.86L277.23 147.781C276.915 147.91 276.58 147.981 276.24 147.99C276.107 148.008 275.972 147.995 275.844 147.953C275.717 147.911 275.601 147.841 275.504 147.747C275.408 147.654 275.334 147.54 275.288 147.413C275.243 147.287 275.226 147.152 275.24 147.019V143.973H277.163V142.906H275.23V140.951H274V142.906H272.9V143.972L273.988 143.974ZM277.993 145.961C277.984 146.381 278.06 146.799 278.218 147.189C278.375 147.579 278.61 147.933 278.909 148.229C279.207 148.525 279.563 148.757 279.954 148.912C280.345 149.066 280.764 149.139 281.184 149.127C281.739 149.135 282.287 148.997 282.771 148.724C283.255 148.452 283.658 148.057 283.939 147.578L283.012 146.905C282.83 147.228 282.564 147.495 282.242 147.678C281.92 147.861 281.554 147.954 281.184 147.946C280.719 147.972 280.262 147.816 279.909 147.512C279.556 147.208 279.335 146.779 279.292 146.315H284.021C284.057 146.122 284.074 145.927 284.072 145.731C284.087 145.341 284.021 144.952 283.88 144.589C283.738 144.225 283.523 143.895 283.248 143.618C282.973 143.341 282.644 143.124 282.281 142.979C281.918 142.835 281.53 142.767 281.14 142.779C280.721 142.767 280.303 142.841 279.913 142.997C279.524 143.153 279.171 143.387 278.875 143.685C278.58 143.984 278.349 144.339 278.197 144.73C278.045 145.121 277.975 145.54 277.991 145.959L277.993 145.961ZM279.326 145.377C279.401 144.958 279.623 144.58 279.954 144.312C280.285 144.044 280.701 143.903 281.126 143.917C281.538 143.901 281.941 144.043 282.252 144.314C282.563 144.585 282.759 144.964 282.8 145.375L279.326 145.377ZM285.126 145.923C285.105 146.337 285.168 146.751 285.312 147.14C285.457 147.529 285.679 147.885 285.965 148.185C286.252 148.484 286.597 148.723 286.978 148.885C287.36 149.047 287.771 149.129 288.186 149.127C288.598 149.153 289.01 149.079 289.388 148.912C289.766 148.746 290.098 148.491 290.357 148.169V149H291.614V140.063H290.357V143.738C290.098 143.416 289.766 143.161 289.388 142.995C289.01 142.828 288.598 142.754 288.186 142.78C287.775 142.77 287.366 142.845 286.985 143.001C286.603 143.156 286.259 143.389 285.971 143.684C285.684 143.978 285.461 144.329 285.316 144.714C285.17 145.099 285.106 145.51 285.126 145.921V145.923ZM288.338 143.911C288.604 143.905 288.868 143.953 289.115 144.052C289.361 144.152 289.585 144.3 289.773 144.488C289.961 144.676 290.109 144.9 290.209 145.146C290.308 145.393 290.356 145.657 290.35 145.923C290.358 146.192 290.311 146.461 290.214 146.712C290.116 146.963 289.969 147.192 289.782 147.386C289.594 147.579 289.37 147.733 289.122 147.839C288.874 147.944 288.607 147.999 288.338 148C288.071 147.998 287.808 147.942 287.564 147.836C287.319 147.729 287.099 147.574 286.917 147.38C286.734 147.186 286.592 146.957 286.501 146.707C286.409 146.456 286.369 146.19 286.383 145.924C286.37 145.661 286.411 145.398 286.504 145.152C286.596 144.905 286.739 144.68 286.922 144.491C287.106 144.302 287.326 144.153 287.57 144.053C287.813 143.953 288.075 143.904 288.338 143.909V143.911ZM293.188 148.354C293.186 148.456 293.205 148.557 293.244 148.652C293.282 148.747 293.339 148.833 293.411 148.905C293.483 148.977 293.569 149.034 293.664 149.072C293.759 149.111 293.86 149.13 293.962 149.128C294.064 149.13 294.166 149.111 294.261 149.073C294.357 149.035 294.443 148.978 294.516 148.906C294.589 148.834 294.646 148.748 294.685 148.653C294.724 148.558 294.744 148.456 294.743 148.354C294.744 148.251 294.725 148.149 294.686 148.054C294.647 147.958 294.59 147.872 294.517 147.799C294.444 147.726 294.358 147.669 294.262 147.63C294.167 147.591 294.065 147.572 293.962 147.573C293.86 147.572 293.758 147.592 293.663 147.631C293.569 147.669 293.483 147.727 293.41 147.8C293.338 147.872 293.281 147.959 293.243 148.054C293.205 148.149 293.186 148.251 293.188 148.353V148.354Z" fill="white"/>
<path d="M79.5519 67.69C79.5447 68.2769 79.6554 68.8592 79.8775 69.4025C80.0995 69.9458 80.4284 70.4389 80.8446 70.8527C81.2609 71.2665 81.7559 71.5925 82.3005 71.8114C82.8451 72.0303 83.428 72.1376 84.0149 72.127C84.7732 72.1354 85.5206 71.9468 86.1841 71.5796C86.8476 71.2123 87.4044 70.6791 87.7999 70.032L86.7999 69.34C86.502 69.8085 86.0905 70.1939 85.6035 70.4604C85.1165 70.7269 84.57 70.8657 84.0149 70.864C83.6009 70.8717 83.1897 70.7941 82.8071 70.6359C82.4244 70.4777 82.0785 70.2424 81.7908 69.9446C81.5031 69.6467 81.2799 69.2929 81.135 68.905C80.9902 68.5171 80.9268 68.1035 80.9489 67.69C80.9249 67.2788 80.9859 66.867 81.1281 66.4804C81.2703 66.0938 81.4905 65.7406 81.7752 65.4428C82.0598 65.145 82.4027 64.9091 82.7826 64.7496C83.1624 64.5902 83.571 64.5106 83.9829 64.516C84.5385 64.513 85.0853 64.6556 85.5686 64.9297C86.052 65.2037 86.4551 65.5996 86.7379 66.078L87.7729 65.354C87.376 64.7067 86.8184 64.1731 86.1543 63.8052C85.4901 63.4372 84.7421 63.2473 83.9829 63.254C83.3981 63.2451 82.8175 63.3538 82.2755 63.5736C81.7336 63.7934 81.2413 64.1199 80.828 64.5337C80.4147 64.9475 80.0887 65.4401 79.8695 65.9823C79.6503 66.5245 79.5423 67.1052 79.5519 67.69ZM88.6929 70.267C88.6929 71.46 89.7279 72.127 91.0479 72.127C91.4155 72.1443 91.7817 72.0698 92.1134 71.9102C92.4451 71.7506 92.7319 71.511 92.9479 71.213V72H94.1789V68.185C94.1789 66.706 93.0939 65.779 91.3789 65.779C90.8886 65.7904 90.4065 65.9069 89.9651 66.1204C89.5236 66.334 89.1331 66.6397 88.8199 67.017L89.6129 67.804C89.8292 67.5496 90.0962 67.3431 90.3968 67.1978C90.6975 67.0525 91.0251 66.9715 91.3589 66.96C91.5502 66.9377 91.7442 66.9551 91.9285 67.0112C92.1129 67.0673 92.2836 67.1608 92.4302 67.2859C92.5767 67.4111 92.6958 67.5651 92.7801 67.7384C92.8644 67.9117 92.9119 68.1005 92.9199 68.293V68.623C92.434 68.4194 91.9104 68.3219 91.3839 68.337C89.7849 68.337 88.6929 69.125 88.6929 70.267ZM89.9629 70.223C89.9629 69.563 90.6229 69.296 91.4169 69.296C91.9317 69.2879 92.4426 69.3874 92.9169 69.588C92.9092 69.7992 92.8591 70.0066 92.7695 70.198C92.6799 70.3894 92.5527 70.5607 92.3954 70.7018C92.2382 70.843 92.0541 70.9509 91.8542 71.0194C91.6543 71.0878 91.4426 71.1152 91.2319 71.1C90.5149 71.1 89.9619 70.775 89.9619 70.223H89.9629ZM97.2809 72V68.566C97.276 68.3478 97.3169 68.1311 97.401 67.9297C97.485 67.7283 97.6103 67.5467 97.7687 67.3966C97.9271 67.2466 98.1153 67.1313 98.3209 67.0584C98.5266 66.9854 98.7453 66.9563 98.9629 66.973C99.1717 66.9583 99.3813 66.9903 99.5763 67.0665C99.7713 67.1428 99.947 67.2614 100.091 67.4139C100.234 67.5663 100.342 67.7488 100.406 67.948C100.471 68.1473 100.49 68.3584 100.463 68.566V72H101.72V68.3C101.747 67.9589 101.699 67.6159 101.58 67.2952C101.46 66.9745 101.272 66.6839 101.028 66.4437C100.785 66.2035 100.491 66.0197 100.169 65.905C99.8462 65.7903 99.5025 65.7477 99.1619 65.78C98.7994 65.7619 98.4381 65.8348 98.111 65.992C97.7838 66.1492 97.5012 66.3857 97.2889 66.68V65.912H96.0239V72H97.2809ZM107.628 72H109.342L110.586 67.665L111.83 72H113.544L115.344 65.906H114.014L112.674 70.769L111.252 65.969H109.919L108.5 70.769L107.158 65.906H105.832L107.628 72ZM116.058 68.959C116.048 69.3797 116.125 69.7978 116.282 70.188C116.44 70.5782 116.675 70.9323 116.973 71.2287C117.272 71.5251 117.628 71.7576 118.019 71.912C118.411 72.0665 118.829 72.1396 119.25 72.127C119.805 72.1354 120.352 71.9965 120.836 71.7244C121.32 71.4523 121.724 71.0567 122.005 70.578L121.078 69.905C120.896 70.2276 120.63 70.4947 120.308 70.678C119.986 70.8613 119.62 70.9539 119.25 70.946C118.785 70.9718 118.328 70.8163 117.975 70.5121C117.622 70.208 117.401 69.7789 117.358 69.315H122.087C122.122 69.1224 122.14 68.9269 122.138 68.731C122.153 68.341 122.087 67.952 121.945 67.5884C121.803 67.2248 121.588 66.8943 121.313 66.6174C121.038 66.3405 120.709 66.1232 120.346 65.9789C119.983 65.8347 119.595 65.7667 119.205 65.779C118.786 65.7672 118.368 65.8416 117.979 65.9977C117.59 66.1537 117.236 66.3881 116.941 66.6863C116.646 66.9844 116.416 67.34 116.264 67.7309C116.112 68.1219 116.042 68.5399 116.058 68.959ZM117.391 68.375C117.465 67.956 117.688 67.5778 118.019 67.3097C118.349 67.0416 118.765 66.9015 119.191 66.915C119.603 66.9003 120.004 67.0432 120.315 67.3144C120.625 67.5857 120.82 67.965 120.86 68.375H117.391ZM126.982 66.975V70.175C126.966 70.4462 127.01 70.7175 127.111 70.9698C127.212 71.2221 127.366 71.4493 127.564 71.6354C127.762 71.8215 127.999 71.9619 128.257 72.0469C128.515 72.1318 128.788 72.1592 129.058 72.127C129.516 72.1336 129.971 72.0426 130.391 71.86L130.226 70.781C129.911 70.9102 129.576 70.981 129.236 70.99C129.103 71.0078 128.968 70.9952 128.84 70.9532C128.713 70.9111 128.596 70.8407 128.5 70.7472C128.404 70.6537 128.33 70.5396 128.284 70.4135C128.239 70.2874 128.222 70.1525 128.236 70.019V66.973H130.159V65.906H128.226V63.951H127V65.906H125.9V66.972L126.982 66.975ZM132.841 72V68.68C132.807 68.4604 132.823 68.2361 132.886 68.0231C132.949 67.8102 133.059 67.6138 133.207 67.4482C133.355 67.2825 133.538 67.1517 133.742 67.0651C133.947 66.9784 134.168 66.9381 134.39 66.947C134.644 66.9463 134.896 66.9938 135.133 67.087L135.266 65.932C134.998 65.8313 134.714 65.7798 134.428 65.78C134.099 65.7677 133.773 65.8518 133.491 66.022C133.209 66.1922 132.983 66.4411 132.841 66.738V65.906H131.578V72H132.841ZM138.275 72.089L138.142 72.438C137.869 73.149 137.542 73.562 136.72 73.562C136.439 73.5597 136.161 73.5047 135.9 73.4L135.767 74.441C136.081 74.5934 136.427 74.6695 136.776 74.663C138.261 74.663 138.788 73.901 139.276 72.771L142.2 65.906H140.813L138.928 70.706L137.028 65.906H135.646L138.275 72.089ZM145.955 72H147.891L147.954 71.53C148.455 71.9459 149.093 72.1599 149.744 72.13C150.144 72.1265 150.539 72.0398 150.903 71.8754C151.268 71.7111 151.594 71.4727 151.862 71.1754C152.129 70.8781 152.332 70.5284 152.457 70.1486C152.582 69.7688 152.626 69.367 152.588 68.969C152.628 68.5694 152.584 68.166 152.46 67.7841C152.335 67.4023 152.133 67.0504 151.866 66.7508C151.599 66.4512 151.272 66.2104 150.907 66.0437C150.541 65.8769 150.145 65.7878 149.744 65.782C149.397 65.7559 149.049 65.8119 148.729 65.9453C148.408 66.0787 148.123 66.2859 147.897 66.55V63.063H145.955V72ZM149.23 67.569C149.412 67.5622 149.593 67.5936 149.762 67.6613C149.931 67.7289 150.084 67.8313 150.211 67.9617C150.337 68.0922 150.436 68.2478 150.498 68.4186C150.561 68.5894 150.588 68.7714 150.576 68.953C150.584 69.1337 150.555 69.3141 150.491 69.4832C150.426 69.6522 150.328 69.8063 150.202 69.936C150.076 70.0656 149.925 70.1681 149.757 70.2371C149.59 70.3061 149.411 70.3401 149.23 70.337C149.052 70.3374 148.876 70.3012 148.712 70.2307C148.549 70.1601 148.401 70.0568 148.28 69.927C148.158 69.7973 148.064 69.6439 148.004 69.4763C147.943 69.3088 147.918 69.1307 147.93 68.953C147.917 68.7752 147.942 68.5967 148.002 68.4287C148.062 68.2608 148.155 68.107 148.278 67.9771C148.4 67.8471 148.547 67.7438 148.711 67.6736C148.875 67.6033 149.052 67.5678 149.23 67.569ZM153.458 68.953C153.453 69.3798 153.535 69.8031 153.699 70.197C153.863 70.591 154.106 70.9474 154.413 71.2444C154.719 71.5414 155.083 71.7729 155.482 71.9246C155.881 72.0764 156.306 72.1452 156.733 72.127C157.159 72.1452 157.585 72.0764 157.984 71.9246C158.383 71.7729 158.747 71.5414 159.053 71.2444C159.36 70.9474 159.602 70.591 159.766 70.197C159.931 69.8031 160.013 69.3798 160.008 68.953C160.013 68.5262 159.931 68.1029 159.766 67.709C159.602 67.315 159.36 66.9586 159.053 66.6616C158.747 66.3646 158.383 66.1331 157.984 65.9814C157.585 65.8296 157.159 65.7608 156.733 65.779C156.306 65.7608 155.881 65.8296 155.482 65.9814C155.083 66.1331 154.719 66.3646 154.413 66.6616C154.106 66.9586 153.863 67.315 153.699 67.709C153.535 68.1029 153.453 68.5262 153.458 68.953ZM155.438 68.953C155.43 68.779 155.457 68.6052 155.519 68.4424C155.581 68.2795 155.675 68.131 155.797 68.0061C155.918 67.8812 156.064 67.7824 156.225 67.716C156.386 67.6496 156.559 67.617 156.733 67.62C156.907 67.617 157.08 67.6496 157.241 67.716C157.402 67.7824 157.548 67.8812 157.669 68.0061C157.79 68.131 157.885 68.2795 157.947 68.4424C158.008 68.6052 158.036 68.779 158.028 68.953C158.038 69.1284 158.012 69.3039 157.951 69.4687C157.89 69.6335 157.796 69.784 157.675 69.9108C157.553 70.0377 157.407 70.1382 157.245 70.206C157.083 70.2738 156.908 70.3075 156.733 70.305C156.557 70.3075 156.383 70.2738 156.221 70.206C156.059 70.1382 155.913 70.0377 155.791 69.9108C155.67 69.784 155.576 69.6335 155.515 69.4687C155.454 69.3039 155.428 69.1284 155.438 68.953ZM163.315 63.062H161.315V72H163.315V63.062ZM167.48 72.127C168.131 72.1613 168.771 71.9469 169.27 71.527L169.333 71.997H171.27V63.063H169.327V66.548C169.101 66.2839 168.816 66.0767 168.495 65.9433C168.174 65.8099 167.826 65.7539 167.48 65.78C167.078 65.7858 166.682 65.8749 166.317 66.0417C165.952 66.2084 165.625 66.4492 165.358 66.7488C165.09 67.0484 164.888 67.4003 164.764 67.7821C164.64 68.164 164.596 68.5674 164.636 68.967C164.597 69.365 164.642 69.7666 164.767 70.1463C164.892 70.526 165.095 70.8756 165.363 71.1728C165.63 71.4699 165.956 71.7082 166.321 71.8725C166.685 72.0368 167.08 72.1235 167.48 72.127ZM166.648 68.953C166.636 68.7714 166.662 68.5894 166.725 68.4186C166.788 68.2478 166.886 68.0922 167.013 67.9617C167.14 67.8313 167.293 67.7289 167.462 67.6613C167.631 67.5936 167.812 67.5622 167.994 67.569C168.172 67.5678 168.349 67.6033 168.513 67.6736C168.677 67.7438 168.824 67.8471 168.946 67.9771C169.068 68.107 169.162 68.2608 169.222 68.4287C169.282 68.5967 169.306 68.7752 169.294 68.953C169.305 69.1307 169.28 69.3088 169.22 69.4763C169.16 69.6439 169.066 69.7973 168.944 69.927C168.822 70.0568 168.675 70.1601 168.512 70.2307C168.348 70.3012 168.172 70.3374 167.994 70.337C167.813 70.3401 167.633 70.3061 167.466 70.2371C167.299 70.1681 167.148 70.0656 167.022 69.936C166.896 69.8063 166.797 69.6522 166.733 69.4832C166.669 69.3141 166.64 69.1337 166.648 68.953ZM172.583 68.953C172.571 69.3819 172.648 69.8087 172.809 70.2061C172.971 70.6036 173.214 70.963 173.522 71.2616C173.83 71.5601 174.197 71.7913 174.599 71.9403C175.002 72.0893 175.431 72.1529 175.859 72.127C176.378 72.1464 176.893 72.035 177.358 71.8031C177.823 71.5713 178.222 71.2263 178.519 70.8L177.249 69.683C177.091 69.9017 176.887 70.0827 176.651 70.2132C176.415 70.3438 176.153 70.4205 175.884 70.438C175.579 70.4725 175.272 70.3921 175.023 70.2126C174.774 70.0331 174.601 69.7672 174.538 69.467H178.651C178.688 69.2318 178.707 68.9941 178.708 68.756C178.722 68.3552 178.653 67.9558 178.504 67.5835C178.355 67.2111 178.13 66.874 177.843 66.5937C177.556 66.3134 177.214 66.0962 176.838 65.9559C176.462 65.8156 176.061 65.7554 175.661 65.779C175.245 65.7657 174.831 65.8394 174.445 65.9954C174.059 66.1515 173.71 66.3865 173.42 66.6853C173.13 66.9842 172.906 67.3402 172.762 67.7307C172.618 68.1212 172.557 68.5376 172.583 68.953ZM175.719 67.353C175.992 67.3378 176.262 67.4259 176.473 67.5998C176.685 67.7737 176.824 68.0207 176.862 68.292H174.539C174.581 68.0158 174.726 67.7659 174.945 67.592C175.164 67.4181 175.44 67.3321 175.719 67.353ZM182.029 72V69.067C182.029 67.931 182.67 67.518 183.429 67.518C183.691 67.5189 183.95 67.5639 184.197 67.651L184.318 65.905C184.078 65.8238 183.828 65.7809 183.575 65.778C183.245 65.7671 182.919 65.8517 182.637 66.0216C182.354 66.1916 182.127 66.4397 181.982 66.736L181.919 65.904H180.034V72H182.029ZM145.073 74H184.454V75H145.073V74ZM185.9 65.8C186.022 65.4387 186.25 65.1228 186.555 64.894C186.86 64.6651 187.227 64.534 187.608 64.518C187.776 64.4956 187.948 64.509 188.111 64.5575C188.274 64.6059 188.425 64.6883 188.553 64.7991C188.682 64.91 188.786 65.0468 188.859 65.2007C188.931 65.3546 188.97 65.522 188.973 65.692C188.973 66.32 188.598 66.682 187.932 67.38C187.606 67.6342 187.334 67.9508 187.133 68.3115C186.931 68.6721 186.804 69.0694 186.758 69.48C186.76 69.6419 186.777 69.8033 186.809 69.962H188.021C187.995 69.6202 188.058 69.2775 188.204 68.9672C188.35 68.6569 188.573 68.3895 188.853 68.191C189.263 67.8943 189.609 67.5174 189.87 67.0833C190.131 66.6492 190.301 66.1667 190.37 65.665C190.364 65.3213 190.286 64.9827 190.142 64.6707C189.998 64.3588 189.79 64.0804 189.532 63.8534C189.274 63.6263 188.971 63.4557 188.643 63.3523C188.315 63.2489 187.969 63.2151 187.628 63.253C187.004 63.2515 186.394 63.4436 185.884 63.8029C185.373 64.1621 184.987 64.6709 184.778 65.259L185.9 65.8ZM187.443 72.127C187.546 72.1321 187.649 72.1156 187.746 72.0786C187.843 72.0416 187.93 71.9849 188.004 71.9121C188.077 71.8393 188.135 71.752 188.173 71.6557C188.211 71.5594 188.228 71.4564 188.224 71.353C188.228 71.2497 188.211 71.1466 188.173 71.0503C188.135 70.9541 188.077 70.8668 188.004 70.794C187.93 70.7211 187.843 70.6644 187.746 70.6274C187.649 70.5904 187.546 70.5739 187.443 70.579C187.34 70.5742 187.237 70.5909 187.141 70.628C187.045 70.6652 186.958 70.7221 186.885 70.7949C186.812 70.8678 186.755 70.9551 186.718 71.0512C186.681 71.1473 186.664 71.2501 186.669 71.353C186.664 71.4559 186.681 71.5587 186.718 71.6548C186.755 71.751 186.812 71.8382 186.885 71.9111C186.958 71.984 187.045 72.0408 187.141 72.078C187.237 72.1152 187.34 72.1319 187.443 72.127Z" fill="white"/>
<path d="M116.363 244.788H111.457V237.38H110.117V246H116.363V244.788ZM120.235 246.127C120.658 246.139 121.079 246.066 121.473 245.912C121.868 245.757 122.226 245.525 122.529 245.229C122.831 244.932 123.07 244.578 123.232 244.187C123.394 243.796 123.476 243.376 123.472 242.953C123.476 242.53 123.394 242.11 123.232 241.719C123.07 241.328 122.831 240.974 122.529 240.677C122.226 240.381 121.868 240.149 121.473 239.994C121.079 239.84 120.658 239.767 120.235 239.779C119.812 239.767 119.391 239.84 118.997 239.995C118.603 240.149 118.245 240.382 117.943 240.678C117.641 240.974 117.401 241.329 117.239 241.72C117.077 242.11 116.996 242.53 117 242.953C116.996 243.376 117.077 243.796 117.239 244.187C117.401 244.577 117.641 244.932 117.943 245.228C118.245 245.524 118.603 245.757 118.997 245.911C119.391 246.066 119.812 246.139 120.235 246.127ZM118.255 242.953C118.248 242.69 118.294 242.429 118.39 242.185C118.487 241.94 118.632 241.718 118.818 241.532C119.003 241.346 119.224 241.199 119.468 241.1C119.711 241.002 119.972 240.954 120.235 240.96C120.498 240.954 120.759 241.002 121.002 241.1C121.246 241.199 121.467 241.346 121.652 241.532C121.837 241.718 121.983 241.94 122.08 242.185C122.176 242.429 122.222 242.69 122.215 242.953C122.222 243.216 122.176 243.477 122.08 243.721C121.983 243.966 121.837 244.188 121.652 244.374C121.467 244.56 121.246 244.707 121.002 244.806C120.759 244.904 120.498 244.952 120.235 244.946C119.972 244.952 119.711 244.904 119.468 244.806C119.224 244.707 119.003 244.56 118.818 244.374C118.632 244.188 118.487 243.966 118.39 243.721C118.294 243.477 118.248 243.216 118.255 242.953ZM127.738 246.127C128.161 246.139 128.582 246.066 128.976 245.912C129.371 245.757 129.729 245.525 130.032 245.229C130.334 244.932 130.573 244.578 130.735 244.187C130.897 243.796 130.979 243.376 130.975 242.953C130.979 242.53 130.897 242.11 130.735 241.719C130.573 241.328 130.334 240.974 130.032 240.677C129.729 240.381 129.371 240.149 128.976 239.994C128.582 239.84 128.161 239.767 127.738 239.779C127.315 239.767 126.893 239.84 126.499 239.994C126.105 240.148 125.746 240.381 125.444 240.677C125.141 240.973 124.902 241.328 124.74 241.719C124.578 242.11 124.496 242.53 124.5 242.953C124.496 243.376 124.578 243.796 124.74 244.187C124.902 244.578 125.141 244.933 125.444 245.229C125.746 245.525 126.105 245.758 126.499 245.912C126.893 246.066 127.315 246.139 127.738 246.127ZM125.758 242.953C125.751 242.69 125.797 242.429 125.893 242.185C125.99 241.94 126.135 241.718 126.321 241.532C126.506 241.346 126.727 241.199 126.971 241.1C127.214 241.002 127.475 240.954 127.738 240.96C128.001 240.954 128.262 241.002 128.505 241.1C128.749 241.199 128.97 241.346 129.155 241.532C129.34 241.718 129.486 241.94 129.583 242.185C129.679 242.429 129.725 242.69 129.718 242.953C129.725 243.216 129.679 243.477 129.583 243.721C129.486 243.966 129.34 244.188 129.155 244.374C128.97 244.56 128.749 244.707 128.505 244.806C128.262 244.904 128.001 244.952 127.738 244.946C127.475 244.952 127.214 244.904 126.971 244.806C126.727 244.707 126.506 244.56 126.321 244.374C126.135 244.188 125.99 243.966 125.893 243.721C125.797 243.477 125.751 243.216 125.758 242.953ZM132.458 237.062V246H133.728V244.191L134.579 243.34L136.619 246H138.212L135.489 242.458L138.11 239.906H136.384L133.724 242.553V237.063L132.458 237.062ZM138.596 244.717C138.865 245.168 139.253 245.538 139.716 245.787C140.18 246.035 140.702 246.153 141.227 246.127C142.522 246.127 143.639 245.41 143.639 244.299C143.639 243.137 142.776 242.706 141.449 242.382C140.549 242.166 140.103 242.039 140.103 241.576C140.103 241.182 140.509 240.929 141.112 240.929C141.422 240.927 141.727 241.002 142.001 241.147C142.275 241.292 142.508 241.503 142.68 241.761L143.524 241.037C143.261 240.64 142.902 240.317 142.48 240.097C142.058 239.877 141.588 239.768 141.112 239.78C139.868 239.78 138.859 240.491 138.859 241.595C138.859 242.801 139.792 243.214 141.1 243.506C142 243.706 142.37 243.849 142.37 244.299C142.37 244.712 141.881 244.972 141.227 244.972C140.879 244.974 140.536 244.882 140.237 244.704C139.937 244.526 139.692 244.27 139.527 243.963L138.596 244.717ZM150.8 246.127C151.212 246.15 151.623 246.075 152 245.908C152.377 245.741 152.71 245.488 152.97 245.168V245.682C152.971 245.944 152.916 246.203 152.809 246.442C152.702 246.681 152.546 246.895 152.35 247.069C152.154 247.243 151.924 247.374 151.674 247.452C151.424 247.53 151.16 247.554 150.9 247.523C150.507 247.518 150.121 247.427 149.767 247.258C149.413 247.088 149.101 246.843 148.851 246.54L148.026 247.359C148.375 247.774 148.812 248.106 149.304 248.332C149.797 248.558 150.334 248.673 150.876 248.667C151.309 248.713 151.748 248.664 152.161 248.525C152.574 248.387 152.952 248.16 153.27 247.862C153.588 247.564 153.838 247.201 154.003 246.797C154.168 246.394 154.245 245.96 154.227 245.524V239.906H152.97V240.738C152.711 240.416 152.379 240.161 152.002 239.994C151.624 239.827 151.212 239.754 150.8 239.779C150.388 239.769 149.979 239.845 149.598 240C149.217 240.156 148.872 240.388 148.585 240.683C148.298 240.978 148.075 241.329 147.929 241.714C147.784 242.099 147.719 242.51 147.74 242.921C147.718 243.335 147.781 243.75 147.926 244.139C148.07 244.528 148.292 244.884 148.579 245.184C148.865 245.484 149.21 245.723 149.592 245.885C149.974 246.047 150.385 246.129 150.8 246.127ZM150.952 240.909C151.218 240.903 151.482 240.951 151.729 241.05C151.975 241.15 152.199 241.298 152.387 241.486C152.575 241.674 152.723 241.898 152.822 242.144C152.922 242.391 152.97 242.655 152.964 242.921C152.972 243.191 152.926 243.459 152.828 243.71C152.731 243.962 152.584 244.191 152.397 244.385C152.209 244.579 151.985 244.733 151.737 244.839C151.488 244.944 151.222 244.999 150.952 245C150.685 244.998 150.422 244.941 150.178 244.834C149.934 244.728 149.714 244.572 149.531 244.378C149.349 244.184 149.208 243.954 149.116 243.704C149.025 243.453 148.985 243.187 149 242.921C148.987 242.658 149.028 242.396 149.121 242.15C149.214 241.904 149.356 241.68 149.539 241.491C149.722 241.303 149.942 241.154 150.185 241.054C150.428 240.953 150.689 240.904 150.952 240.909ZM157.395 246V242.68C157.361 242.46 157.377 242.236 157.44 242.023C157.503 241.81 157.613 241.614 157.761 241.448C157.909 241.283 158.092 241.152 158.296 241.065C158.501 240.978 158.722 240.938 158.944 240.947C159.198 240.946 159.45 240.994 159.687 241.087L159.82 239.932C159.552 239.831 159.268 239.78 158.982 239.78C158.653 239.768 158.327 239.852 158.045 240.022C157.763 240.192 157.537 240.441 157.395 240.738V239.906H156.131V246H157.395ZM160.328 242.959C160.319 243.38 160.395 243.798 160.552 244.188C160.71 244.578 160.945 244.932 161.243 245.229C161.542 245.525 161.898 245.758 162.289 245.912C162.681 246.066 163.099 246.14 163.52 246.127C164.075 246.135 164.623 245.997 165.107 245.724C165.591 245.452 165.994 245.057 166.275 244.578L165.348 243.905C165.166 244.228 164.9 244.495 164.578 244.678C164.256 244.861 163.89 244.954 163.52 244.946C163.055 244.972 162.598 244.816 162.245 244.512C161.892 244.208 161.671 243.779 161.628 243.315H166.357C166.393 243.122 166.41 242.927 166.408 242.731C166.423 242.341 166.357 241.952 166.215 241.588C166.074 241.225 165.858 240.894 165.583 240.617C165.308 240.34 164.979 240.123 164.616 239.979C164.254 239.835 163.865 239.767 163.475 239.779C163.056 239.767 162.638 239.841 162.249 239.997C161.859 240.153 161.506 240.388 161.211 240.686C160.916 240.984 160.685 241.34 160.533 241.731C160.381 242.122 160.312 242.54 160.328 242.959ZM161.661 242.375C161.735 241.956 161.958 241.578 162.289 241.31C162.619 241.042 163.036 240.901 163.461 240.915C163.873 240.9 164.275 241.043 164.585 241.314C164.895 241.586 165.09 241.965 165.13 242.375H161.661ZM167.494 244.267C167.494 245.46 168.529 246.127 169.849 246.127C170.217 246.144 170.583 246.07 170.914 245.91C171.246 245.751 171.533 245.511 171.749 245.213V246H172.98V242.185C172.98 240.706 171.895 239.779 170.18 239.779C169.69 239.791 169.208 239.907 168.767 240.121C168.325 240.334 167.935 240.64 167.622 241.017L168.415 241.804C168.631 241.55 168.898 241.343 169.198 241.198C169.499 241.053 169.826 240.972 170.16 240.96C170.351 240.938 170.545 240.955 170.73 241.011C170.914 241.067 171.085 241.16 171.232 241.286C171.379 241.411 171.498 241.565 171.582 241.738C171.666 241.911 171.714 242.1 171.722 242.293V242.623C171.236 242.419 170.712 242.322 170.186 242.337C168.585 242.337 167.494 243.125 167.494 244.267ZM168.764 244.223C168.764 243.563 169.424 243.296 170.218 243.296C170.733 243.288 171.244 243.387 171.718 243.588C171.71 243.799 171.66 244.007 171.571 244.198C171.481 244.389 171.354 244.561 171.197 244.702C171.039 244.843 170.855 244.951 170.655 245.019C170.455 245.088 170.244 245.115 170.033 245.1C169.315 245.1 168.764 244.775 168.764 244.223ZM175.118 240.973V244.173C175.102 244.444 175.146 244.716 175.246 244.968C175.347 245.221 175.502 245.448 175.699 245.634C175.897 245.821 176.133 245.961 176.391 246.046C176.65 246.132 176.923 246.159 177.193 246.127C177.651 246.134 178.106 246.043 178.526 245.86L178.361 244.781C178.046 244.91 177.711 244.981 177.371 244.99C177.238 245.008 177.103 244.995 176.975 244.953C176.848 244.911 176.732 244.841 176.635 244.747C176.539 244.654 176.465 244.54 176.419 244.414C176.374 244.287 176.357 244.152 176.371 244.019V240.973H178.3V239.906H176.361V237.951H175.136V239.906H174.036V240.972L175.118 240.973ZM179.726 237.38L179.926 243.664H181.018L181.259 237.38H179.726ZM180.468 246.127C180.57 246.129 180.672 246.11 180.767 246.072C180.863 246.034 180.949 245.977 181.022 245.905C181.095 245.833 181.152 245.747 181.191 245.652C181.23 245.557 181.25 245.456 181.249 245.353C181.25 245.25 181.231 245.148 181.192 245.053C181.153 244.957 181.096 244.871 181.023 244.798C180.95 244.725 180.864 244.668 180.768 244.629C180.673 244.59 180.571 244.571 180.468 244.572C180.365 244.571 180.264 244.591 180.169 244.63C180.074 244.669 179.988 244.726 179.916 244.799C179.844 244.872 179.787 244.958 179.749 245.054C179.711 245.149 179.692 245.251 179.694 245.353C179.692 245.455 179.711 245.556 179.75 245.651C179.788 245.746 179.845 245.832 179.917 245.904C179.989 245.976 180.075 246.033 180.17 246.071C180.264 246.11 180.366 246.129 180.468 246.127Z" fill="white"/>
<path opacity="0.345" d="M54.5 82C62.5081 82 69 75.5081 69 67.5C69 59.4919 62.5081 53 54.5 53C46.4919 53 40 59.4919 40 67.5C40 75.5081 46.4919 82 54.5 82Z" fill="black"/>
<path opacity="0.345" d="M84.5 256C92.5081 256 99 249.508 99 241.5C99 233.492 92.5081 227 84.5 227C76.4919 227 70 233.492 70 241.5C70 249.508 76.4919 256 84.5 256Z" fill="black"/>
<path opacity="0.345" d="M179.5 144.5L156.5 157.5V131.5L179.5 144.5Z" fill="black"/>
<path d="M191.154 152.539C191.154 152.539 191.435 153.573 194.107 153.573C196.779 153.573 197.178 152.539 197.178 152.539C197.178 152.539 197.353 151.665 199.812 151.639C202.271 151.613 202.751 152.539 202.751 152.539" stroke="white"/>
<path d="M202.751 152.539C202.751 152.539 203.032 153.573 205.704 153.573C208.376 153.573 208.775 152.539 208.775 152.539C208.775 152.539 208.95 151.665 211.409 151.639C213.868 151.613 214.348 152.539 214.348 152.539" stroke="white"/>
<path d="M214.349 152.539C214.349 152.539 214.63 153.573 217.302 153.573C219.974 153.573 220.373 152.539 220.373 152.539C220.373 152.539 220.548 151.665 223.007 151.639C225.466 151.613 225.946 152.539 225.946 152.539" stroke="white"/>
<path d="M225.946 152.539C225.946 152.539 226.227 153.573 228.899 153.573C231.571 153.573 231.97 152.539 231.97 152.539C231.97 152.539 232.145 151.665 234.604 151.639C237.063 151.613 237.543 152.539 237.543 152.539" stroke="white"/>
<path d="M198.79 238.437C199.739 238.248 200.709 238.187 201.674 238.255C202.469 238.312 203.264 238.295 203.401 239.255C203.444 239.418 203.448 239.589 203.413 239.754C203.377 239.919 203.304 240.073 203.197 240.205C203.091 240.336 202.956 240.44 202.802 240.509C202.648 240.578 202.479 240.609 202.311 240.601C201.972 240.638 201.557 240.658 201.211 240.712L200.943 241.007C201.259 240.964 201.984 240.979 202.202 240.951C203.122 240.838 203.902 241.207 204.017 242.092C204.043 242.271 204.028 242.454 203.971 242.626C203.915 242.798 203.82 242.954 203.693 243.083C203.565 243.212 203.41 243.309 203.239 243.368C203.068 243.426 202.885 243.444 202.706 243.42C202.422 243.404 201.622 243.514 200.827 243.535L200.766 243.696L200.738 243.744C201.238 243.758 201.725 243.778 202.069 243.795C202.988 243.841 203.489 244.334 203.477 244.989C203.446 245.308 203.296 245.603 203.055 245.815C202.815 246.027 202.503 246.139 202.183 246.129C201.254 246.15 200.324 246.123 199.398 246.048L199.247 246.306C199.315 246.306 201.147 246.396 201.222 246.4C202.064 246.463 202.422 246.768 202.402 247.369C202.372 248.212 201.472 248.436 200.984 248.513C200.116 248.601 199.243 248.638 198.371 248.623C196.71 248.669 193.31 248.743 191.723 247.352C191.263 246.852 190.742 246.414 190.171 246.047C189.198 245.659 189.114 244.391 189.158 242.789C189.179 242.014 188.913 239.838 189.858 239.311C191.177 238.572 193.414 238.011 194.158 237.429C195.201 236.506 195.979 235.323 196.414 234C197.032 232.26 197.22 231 198.302 231C200.197 231 200.147 232.693 200.183 233.539C200.252 235.2 198.207 238.262 198.79 238.437Z" fill="#FAC036"/>
<path d="M197.161 242.247C197.164 242.496 197.23 242.74 197.354 242.956C197.478 243.173 197.654 243.353 197.868 243.482C197.556 243.496 197.261 243.625 197.039 243.845C196.817 244.064 196.685 244.358 196.668 244.67C196.656 244.943 196.718 245.214 196.847 245.455C196.975 245.697 197.166 245.899 197.399 246.042C197.177 246.12 196.988 246.271 196.861 246.469C196.734 246.667 196.677 246.902 196.699 247.136C196.686 247.515 196.821 247.884 197.077 248.164C197.332 248.444 197.686 248.614 198.065 248.636C198.988 248.679 199.912 248.642 200.829 248.528C201.118 248.484 199.396 248.464 198.135 248.299C197.922 248.261 197.726 248.161 197.572 248.01C197.418 247.859 197.314 247.665 197.272 247.453C197.248 247.267 197.278 247.079 197.358 246.91C197.437 246.741 197.564 246.598 197.722 246.498C197.722 246.498 197.956 246.298 199.04 246.306H199.368C199.468 246.313 200.78 246.359 201.216 246.39C201.385 246.4 201.552 246.428 201.716 246.471C201.682 246.423 201.668 246.364 201.676 246.306C201.695 246.141 201.803 246.134 201.831 246.134L201.582 246.132L200.659 246.079C199.739 246.023 198.442 245.935 198.293 245.879C198.038 245.81 197.812 245.66 197.65 245.452C197.488 245.244 197.398 244.989 197.393 244.725C197.393 244.725 197.346 243.937 198.551 243.9C199.901 243.815 201.254 243.815 202.604 243.9C202.604 243.9 202.432 243.579 202.717 243.436C202.717 243.436 200.684 243.486 199.41 243.52C198.136 243.554 197.864 242.877 197.831 242.508C197.831 242.452 197.815 242.364 197.815 242.26C197.815 241.526 198.459 241.429 199.381 241.31C201.37 241.049 202.212 240.968 202.212 240.968C202.316 240.955 202.422 240.948 202.527 240.949C202.49 240.931 202.458 240.905 202.433 240.873C202.409 240.84 202.393 240.802 202.386 240.762C202.386 240.708 202.395 240.655 202.412 240.604C202.412 240.604 201.554 240.674 200.231 240.85C198.908 241.026 197.852 240.95 197.756 240.172C197.708 239.963 197.707 239.746 197.754 239.537C197.801 239.328 197.894 239.132 198.027 238.964C198.248 238.735 198.517 238.557 198.815 238.445C198.781 238.437 198.75 238.419 198.728 238.392C198.707 238.359 198.696 238.321 198.695 238.282C197.617 238.419 196.879 239.104 196.94 239.982C196.983 240.582 197.14 240.982 197.54 241.182C197.538 241.173 197.142 241.395 197.161 242.247Z" fill="#E48C15"/>
<path d="M197.6 240.335L197.127 240.472C197.297 241.304 197.207 242.168 196.87 242.948C196.532 243.727 195.964 244.384 195.241 244.83C195.241 244.83 194.909 245.052 195.07 245.219C195.07 245.219 195.183 245.413 195.658 245.049C196.396 244.529 196.971 243.809 197.315 242.975C197.659 242.14 197.758 241.224 197.6 240.335Z" fill="#E48C15"/>
</g>
<defs>
<clipPath id="clip0_619_536">
<rect width="352" height="320" fill="white"/>
</clipPath>
</defs>
</svg>
