<svg width="352" height="320" viewBox="0 0 352 320" fill="none" xmlns="http://www.w3.org/2000/svg">
<g clip-path="url(#clip0_619_559)">
<mask id="mask0_619_559" style="mask-type:luminance" maskUnits="userSpaceOnUse" x="0" y="0" width="352" height="320">
<path d="M342 0H10C4.47715 0 0 4.47715 0 10V310C0 315.523 4.47715 320 10 320H342C347.523 320 352 315.523 352 310V10C352 4.47715 347.523 0 342 0Z" fill="white"/>
</mask>
<g mask="url(#mask0_619_559)">
<path d="M498 29H289C283.477 29 279 33.4772 279 39V170C279 175.523 283.477 180 289 180H498C503.523 180 508 175.523 508 170V39C508 33.4772 503.523 29 498 29Z" fill="#E38777"/>
<path d="M302.172 62.156C303.131 62.1701 304.076 61.9321 304.914 61.466C305.751 60.9999 306.452 60.3219 306.945 59.5L304.977 58.063C304.702 58.5672 304.297 58.9892 303.805 59.2858C303.313 59.5824 302.751 59.7429 302.177 59.751C301.776 59.7641 301.376 59.6931 301.004 59.5425C300.631 59.3919 300.295 59.1651 300.015 58.8766C299.736 58.5881 299.52 58.2443 299.382 57.8674C299.243 57.4905 299.185 57.0887 299.211 56.688C299.185 56.2885 299.244 55.8881 299.382 55.5125C299.521 55.137 299.737 54.7946 300.015 54.5075C300.294 54.2204 300.631 53.995 301.002 53.8458C301.373 53.6965 301.772 53.6268 302.172 53.641C302.742 53.6515 303.298 53.8148 303.784 54.1138C304.269 54.4129 304.665 54.8367 304.93 55.341L306.907 53.88C306.405 53.0756 305.708 52.4111 304.88 51.9482C304.052 51.4852 303.121 51.2389 302.173 51.232C301.444 51.2081 300.717 51.3319 300.036 51.5959C299.356 51.8598 298.736 52.2586 298.213 52.7681C297.691 53.2777 297.277 53.8875 296.996 54.5611C296.715 55.2347 296.573 55.9582 296.578 56.688C296.573 57.4182 296.715 58.1421 296.996 58.8162C297.276 59.4902 297.69 60.1008 298.213 60.6112C298.735 61.1217 299.355 61.5216 300.035 61.787C300.715 62.0524 301.442 62.1779 302.172 62.156ZM311 62.234C311.433 62.259 311.865 62.1872 312.267 62.0237C312.668 61.8602 313.028 61.6092 313.32 61.289L313.4 62H315.658V54.5H313.2V58.75C313.206 58.9151 313.178 59.0797 313.117 59.2334C313.057 59.387 312.965 59.5263 312.847 59.6424C312.729 59.7585 312.589 59.8488 312.434 59.9076C312.28 59.9664 312.115 59.9925 311.95 59.984C311.785 59.9913 311.62 59.9646 311.465 59.9055C311.311 59.8464 311.17 59.7563 311.052 59.6406C310.933 59.5249 310.84 59.3862 310.777 59.233C310.715 59.0798 310.684 58.9154 310.688 58.75V54.5H308.227V59.453C308.215 59.8209 308.278 60.1874 308.413 60.53C308.547 60.8725 308.751 61.1837 309.011 61.4444C309.271 61.705 309.581 61.9096 309.924 62.0454C310.266 62.1812 310.632 62.2454 311 62.234ZM320.281 62V58.391C320.281 56.991 321.07 56.485 322 56.485C322.322 56.4862 322.641 56.5417 322.945 56.649L323.094 54.5C322.799 54.4003 322.491 54.3476 322.18 54.344C321.774 54.3299 321.373 54.4339 321.025 54.6434C320.677 54.8528 320.397 55.1587 320.219 55.524L320.141 54.5H317.82V62H320.281ZM326.812 62V58.391C326.812 56.991 327.601 56.485 328.531 56.485C328.853 56.4862 329.172 56.5417 329.476 56.649L329.625 54.5C329.33 54.4003 329.022 54.3476 328.711 54.344C328.305 54.3299 327.904 54.4339 327.556 54.6434C327.208 54.8528 326.928 55.1587 326.75 55.524L326.672 54.5H324.352V62H326.812ZM330.039 58.25C330.023 58.7779 330.118 59.3033 330.316 59.7927C330.515 60.282 330.814 60.7246 331.193 61.0921C331.572 61.4596 332.024 61.7441 332.519 61.9273C333.015 62.1104 333.543 62.1883 334.07 62.156C334.709 62.1799 335.343 62.0429 335.915 61.7576C336.487 61.4722 336.978 61.0477 337.343 60.523L335.781 59.148C335.587 59.4173 335.336 59.6403 335.045 59.801C334.755 59.9618 334.432 60.0564 334.101 60.078C333.725 60.1203 333.347 60.0207 333.041 59.7987C332.734 59.5767 332.522 59.2484 332.445 58.878H337.508C337.553 58.5885 337.577 58.296 337.578 58.003C337.596 57.5097 337.51 57.0181 337.327 56.5598C337.144 56.1015 336.866 55.6866 336.513 55.3416C336.16 54.9967 335.739 54.7293 335.277 54.5566C334.814 54.384 334.321 54.3098 333.828 54.339C333.316 54.3225 332.805 54.4133 332.33 54.6056C331.855 54.798 331.425 55.0876 331.068 55.4559C330.711 55.8242 330.435 56.263 330.258 56.7442C330.081 57.2254 330.006 57.7383 330.039 58.25ZM333.9 56.281C334.236 56.2642 334.566 56.3737 334.825 56.5878C335.084 56.8019 335.253 57.1052 335.3 57.438H332.445C332.497 57.0971 332.676 56.7884 332.945 56.5738C333.215 56.3592 333.556 56.2546 333.9 56.281ZM341.453 62V57.828C341.447 57.6631 341.475 57.4988 341.535 57.3454C341.596 57.1919 341.688 57.0528 341.805 56.9367C341.922 56.8207 342.062 56.7303 342.217 56.6713C342.371 56.6123 342.535 56.586 342.7 56.594C342.865 56.5873 343.03 56.6144 343.184 56.6737C343.338 56.733 343.478 56.8233 343.596 56.9389C343.714 57.0545 343.807 57.1931 343.869 57.346C343.931 57.4989 343.962 57.6629 343.958 57.828V62H346.419V57.125C346.432 56.7571 346.368 56.3906 346.234 56.048C346.099 55.7055 345.895 55.3943 345.635 55.1336C345.375 54.873 345.065 54.6684 344.722 54.5326C344.38 54.3968 344.014 54.3326 343.646 54.344C343.213 54.319 342.781 54.3908 342.379 54.5543C341.978 54.7178 341.618 54.9688 341.326 55.289L341.25 54.5H338.992V62H341.453ZM347.3 56.508H348.5V59.328C348.5 61.328 349.742 62.156 351.461 62.156C352.148 62.1592 352.827 62.0153 353.453 61.734L353.281 59.734C352.895 59.8888 352.486 59.9761 352.07 59.992C351.422 59.992 350.961 59.742 350.961 58.93V56.508H353.161V54.5H350.883V52.094H348.5V54.5H347.3V56.508ZM356.9 53.6H360.041V62H362.6V53.6H365.733V51.389H356.9V53.6ZM367.688 62.156C368.07 62.1662 368.449 62.0883 368.796 61.9284C369.142 61.7686 369.448 61.5309 369.688 61.234V62H372.024V57.547C372.024 55.547 370.649 54.347 368.368 54.347C367.729 54.3575 367.099 54.5004 366.518 54.7666C365.937 55.0329 365.418 55.4168 364.993 55.894L366.352 57.355C366.578 57.0989 366.855 56.8924 367.164 56.7485C367.474 56.6046 367.811 56.5265 368.152 56.519C369.043 56.519 369.558 56.949 369.558 57.535V57.683C369.069 57.5496 368.565 57.4823 368.058 57.483C366.358 57.483 364.886 58.383 364.886 59.874C364.891 61.3 366.1 62.156 367.688 62.156ZM367.251 59.726C367.251 59.242 367.735 58.976 368.501 58.976C368.865 58.9761 369.225 59.0439 369.564 59.176C369.569 59.3511 369.537 59.5253 369.471 59.6876C369.406 59.8499 369.307 59.9968 369.181 60.119C369.056 60.2411 368.906 60.3359 368.742 60.3974C368.578 60.4588 368.403 60.4856 368.228 60.476C367.656 60.477 367.25 60.172 367.25 59.727L367.251 59.726ZM373.509 60.578C373.904 61.1098 374.426 61.5332 375.028 61.8091C375.631 62.085 376.293 62.2043 376.953 62.156C378.719 62.156 380.053 61.156 380.053 59.789C380.053 58.367 378.826 57.742 377.373 57.398C376.459 57.179 375.904 57.039 375.904 56.742C375.904 56.445 376.217 56.25 376.795 56.25C377.108 56.2536 377.417 56.3262 377.699 56.4626C377.982 56.5989 378.23 56.7957 378.428 57.039L379.873 55.812C379.513 55.3469 379.05 54.972 378.52 54.7172C377.99 54.4623 377.408 54.3346 376.82 54.344C374.961 54.344 373.726 55.375 373.726 56.774C373.726 58.149 374.804 58.782 376.164 59.126C377.32 59.415 377.781 59.446 377.781 59.782C377.781 60.118 377.39 60.243 376.969 60.243C376.587 60.2314 376.212 60.1341 375.873 59.9582C375.533 59.7824 375.238 59.5325 375.008 59.227L373.509 60.578ZM381.727 51V62H384.188V59.867L384.868 59.195L386.875 62H389.875L386.508 57.672L389.75 54.5H386.539L384.188 56.867V51H381.727Z" fill="#482A25"/>
<path d="M486 82H301C298.239 82 296 84.2386 296 87V122C296 124.761 298.239 127 301 127H486C488.761 127 491 124.761 491 122V87C491 84.2386 488.761 82 486 82Z" fill="white"/>
<path d="M321.063 109.508H315.023V100.391H313.375V111H321.063V109.508ZM325.828 111.156C326.349 111.171 326.867 111.081 327.352 110.891C327.838 110.701 328.279 110.416 328.652 110.051C329.024 109.686 329.318 109.25 329.518 108.769C329.717 108.288 329.818 107.771 329.813 107.25C329.818 106.729 329.717 106.213 329.518 105.731C329.318 105.25 329.024 104.814 328.652 104.45C328.28 104.085 327.838 103.799 327.353 103.609C326.868 103.419 326.35 103.329 325.829 103.344C325.308 103.329 324.79 103.419 324.305 103.609C323.819 103.799 323.378 104.084 323.005 104.449C322.633 104.814 322.339 105.25 322.139 105.731C321.94 106.212 321.839 106.729 321.844 107.25C321.839 107.771 321.94 108.287 322.139 108.769C322.339 109.25 322.633 109.686 323.005 110.05C323.377 110.415 323.819 110.701 324.304 110.891C324.789 111.081 325.307 111.171 325.828 111.156ZM323.391 107.25C323.382 106.927 323.439 106.606 323.558 106.305C323.678 106.005 323.857 105.732 324.084 105.503C324.312 105.274 324.584 105.093 324.884 104.972C325.184 104.852 325.505 104.793 325.828 104.8C326.151 104.793 326.472 104.851 326.772 104.972C327.072 105.093 327.344 105.273 327.572 105.502C327.8 105.732 327.979 106.005 328.098 106.305C328.218 106.605 328.275 106.927 328.266 107.25C328.275 107.573 328.218 107.895 328.098 108.195C327.979 108.495 327.8 108.768 327.572 108.998C327.344 109.227 327.072 109.407 326.772 109.528C326.472 109.649 326.151 109.707 325.828 109.7C325.505 109.707 325.184 109.648 324.884 109.528C324.584 109.407 324.312 109.226 324.084 108.997C323.857 108.768 323.678 108.495 323.558 108.195C323.439 107.894 323.382 107.573 323.391 107.25ZM334.891 111.156C335.398 111.184 335.904 111.092 336.369 110.887C336.833 110.682 337.242 110.369 337.563 109.976V110.609C337.564 110.931 337.497 111.25 337.365 111.545C337.234 111.839 337.041 112.102 336.801 112.316C336.56 112.531 336.276 112.691 335.968 112.788C335.661 112.884 335.336 112.914 335.016 112.875C334.532 112.869 334.056 112.758 333.62 112.549C333.184 112.34 332.799 112.038 332.492 111.664L331.477 112.672C331.907 113.182 332.444 113.591 333.051 113.869C333.657 114.148 334.318 114.288 334.985 114.281C337.508 114.281 339.11 112.773 339.11 110.414V103.5H337.563V104.523C337.245 104.127 336.836 103.813 336.371 103.607C335.906 103.402 335.398 103.311 334.891 103.343C334.385 103.331 333.881 103.424 333.412 103.615C332.943 103.807 332.519 104.093 332.165 104.456C331.812 104.819 331.537 105.251 331.358 105.724C331.179 106.198 331.1 106.704 331.125 107.21C331.098 107.72 331.176 108.23 331.354 108.709C331.531 109.188 331.804 109.626 332.157 109.995C332.51 110.365 332.934 110.658 333.404 110.858C333.874 111.057 334.38 111.159 334.891 111.156ZM335.079 104.734C335.406 104.727 335.732 104.786 336.035 104.908C336.339 105.03 336.615 105.212 336.847 105.443C337.078 105.675 337.26 105.951 337.382 106.255C337.504 106.558 337.563 106.884 337.556 107.211C337.565 107.542 337.508 107.873 337.388 108.182C337.268 108.491 337.087 108.773 336.856 109.011C336.625 109.249 336.349 109.438 336.044 109.568C335.739 109.698 335.411 109.765 335.079 109.766C334.751 109.763 334.427 109.695 334.126 109.563C333.826 109.432 333.555 109.241 333.33 109.003C333.105 108.764 332.931 108.482 332.818 108.174C332.705 107.866 332.656 107.539 332.673 107.211C332.657 106.888 332.708 106.564 332.822 106.262C332.937 105.959 333.112 105.682 333.338 105.45C333.563 105.218 333.834 105.034 334.133 104.911C334.433 104.788 334.754 104.728 335.078 104.734H335.079ZM344.879 111.156C345.4 111.172 345.919 111.082 346.404 110.892C346.89 110.702 347.332 110.417 347.704 110.052C348.077 109.687 348.372 109.251 348.572 108.77C348.771 108.288 348.872 107.771 348.867 107.25C348.872 106.729 348.771 106.213 348.572 105.731C348.372 105.25 348.078 104.814 347.706 104.45C347.334 104.085 346.892 103.799 346.407 103.609C345.922 103.419 345.404 103.329 344.883 103.344C344.362 103.329 343.844 103.419 343.359 103.609C342.874 103.799 342.433 104.085 342.061 104.45C341.689 104.815 341.394 105.251 341.195 105.732C340.996 106.213 340.895 106.729 340.9 107.25C340.895 107.771 340.996 108.287 341.195 108.768C341.394 109.249 341.689 109.685 342.061 110.05C342.433 110.415 342.874 110.701 343.359 110.891C343.844 111.081 344.362 111.171 344.883 111.156H344.879ZM342.445 107.25C342.436 106.927 342.493 106.605 342.613 106.305C342.732 106.005 342.911 105.732 343.139 105.502C343.367 105.273 343.639 105.093 343.939 104.972C344.239 104.851 344.56 104.793 344.883 104.8C345.206 104.793 345.527 104.852 345.827 104.972C346.127 105.093 346.399 105.274 346.627 105.503C346.854 105.732 347.033 106.005 347.153 106.305C347.272 106.606 347.329 106.927 347.32 107.25C347.329 107.573 347.272 107.894 347.153 108.195C347.033 108.495 346.854 108.768 346.627 108.997C346.399 109.226 346.127 109.407 345.827 109.528C345.527 109.648 345.206 109.707 344.883 109.7C344.56 109.707 344.239 109.649 343.939 109.528C343.639 109.407 343.367 109.227 343.139 108.998C342.911 108.768 342.732 108.495 342.613 108.195C342.493 107.895 342.436 107.573 342.445 107.25Z" fill="#11081A"/>
<path opacity="0.5" d="M296.367 152.906V154.445H299.7V157.82H301.328V154.445H304.68V152.906H301.328V149.586H299.7V152.906H296.367ZM310.109 159L310.953 156.789H316.312L317.156 159H318.906L314.523 148.391H312.742L308.359 159H310.109ZM311.445 155.422L313.633 150.222L315.821 155.422H311.445ZM319.562 155.211C319.535 155.721 319.613 156.231 319.791 156.71C319.968 157.189 320.242 157.626 320.594 157.995C320.947 158.365 321.371 158.658 321.841 158.858C322.311 159.057 322.817 159.159 323.328 159.156C323.835 159.188 324.343 159.097 324.808 158.892C325.273 158.687 325.681 158.373 326 157.977V159H327.547V148H326V152.523C325.682 152.127 325.273 151.813 324.808 151.607C324.343 151.402 323.835 151.311 323.328 151.343C322.821 151.331 322.318 151.424 321.849 151.616C321.38 151.807 320.956 152.093 320.602 152.456C320.249 152.819 319.974 153.251 319.796 153.725C319.617 154.199 319.537 154.705 319.562 155.211ZM323.515 152.734C323.842 152.727 324.168 152.786 324.471 152.908C324.775 153.03 325.051 153.212 325.283 153.443C325.514 153.675 325.696 153.951 325.818 154.255C325.94 154.558 325.999 154.884 325.992 155.211C326.001 155.543 325.944 155.873 325.824 156.182C325.704 156.491 325.523 156.773 325.292 157.011C325.061 157.249 324.785 157.438 324.48 157.568C324.175 157.698 323.847 157.765 323.515 157.766C323.187 157.763 322.863 157.695 322.562 157.563C322.262 157.432 321.991 157.241 321.766 157.003C321.541 156.764 321.367 156.482 321.254 156.174C321.141 155.866 321.092 155.539 321.109 155.211C321.093 154.887 321.144 154.564 321.258 154.261C321.373 153.958 321.548 153.682 321.774 153.449C322 153.217 322.271 153.034 322.571 152.911C322.87 152.788 323.192 152.727 323.516 152.734H323.515ZM329.382 155.211C329.355 155.721 329.433 156.231 329.611 156.71C329.788 157.189 330.062 157.626 330.414 157.995C330.767 158.365 331.191 158.658 331.661 158.858C332.131 159.057 332.637 159.159 333.148 159.156C333.655 159.188 334.163 159.097 334.628 158.892C335.093 158.686 335.502 158.372 335.82 157.976V159H337.367V148H335.82V152.523C335.502 152.127 335.093 151.813 334.628 151.607C334.163 151.402 333.655 151.311 333.148 151.343C332.641 151.331 332.138 151.424 331.669 151.616C331.2 151.807 330.776 152.093 330.422 152.456C330.069 152.819 329.794 153.251 329.616 153.725C329.437 154.199 329.357 154.705 329.382 155.211ZM333.335 152.734C333.662 152.727 333.988 152.786 334.291 152.908C334.595 153.03 334.871 153.212 335.103 153.443C335.334 153.675 335.516 153.951 335.638 154.255C335.76 154.558 335.819 154.884 335.812 155.211C335.821 155.543 335.764 155.873 335.644 156.182C335.524 156.491 335.343 156.773 335.112 157.011C334.881 157.249 334.605 157.438 334.3 157.568C333.995 157.698 333.667 157.765 333.335 157.766C333.007 157.763 332.683 157.694 332.383 157.563C332.082 157.432 331.811 157.241 331.587 157.002C331.362 156.763 331.188 156.482 331.075 156.174C330.962 155.866 330.913 155.538 330.93 155.211C330.914 154.888 330.965 154.564 331.079 154.261C331.194 153.958 331.369 153.682 331.595 153.45C331.82 153.218 332.091 153.034 332.391 152.911C332.691 152.788 333.011 152.728 333.335 152.734ZM342.913 156.867C342.913 158.336 344.186 159.156 345.813 159.156C346.265 159.177 346.715 159.085 347.122 158.888C347.53 158.692 347.882 158.397 348.148 158.031V159H349.664V154.3C349.664 152.48 348.328 151.339 346.219 151.339C345.615 151.354 345.022 151.498 344.479 151.761C343.935 152.025 343.455 152.402 343.07 152.867L344.047 153.836C344.314 153.523 344.643 153.269 345.014 153.091C345.385 152.912 345.789 152.813 346.2 152.8C346.436 152.772 346.675 152.792 346.902 152.861C347.129 152.93 347.34 153.045 347.521 153.199C347.701 153.353 347.848 153.543 347.951 153.757C348.055 153.971 348.113 154.204 348.122 154.441V154.847C347.524 154.596 346.879 154.476 346.231 154.495C344.258 154.492 342.914 155.461 342.914 156.867H342.913ZM344.476 156.812C344.476 156 345.289 155.671 346.265 155.671C346.901 155.66 347.531 155.782 348.117 156.03C348.107 156.29 348.045 156.546 347.935 156.781C347.824 157.017 347.667 157.228 347.473 157.401C347.279 157.575 347.052 157.707 346.806 157.791C346.559 157.875 346.299 157.908 346.039 157.889C345.156 157.891 344.477 157.492 344.477 156.813L344.476 156.812ZM359.031 159.156C359.74 159.162 360.437 158.976 361.048 158.616C361.658 158.257 362.16 157.739 362.5 157.117L361.336 156.3C361.116 156.721 360.786 157.074 360.381 157.322C359.976 157.57 359.511 157.702 359.036 157.706C358.714 157.71 358.394 157.648 358.097 157.525C357.799 157.402 357.53 157.22 357.304 156.99C357.079 156.76 356.902 156.487 356.785 156.187C356.667 155.887 356.612 155.567 356.622 155.245C356.612 154.922 356.668 154.6 356.787 154.299C356.906 153.998 357.086 153.724 357.314 153.495C357.543 153.266 357.816 153.087 358.117 152.967C358.418 152.847 358.739 152.791 359.063 152.8C359.531 152.809 359.988 152.945 360.384 153.195C360.781 153.444 361.102 153.796 361.313 154.214L362.513 153.402C362.188 152.778 361.698 152.256 361.095 151.894C360.493 151.531 359.802 151.342 359.099 151.347C358.576 151.331 358.055 151.421 357.567 151.609C357.079 151.798 356.634 152.082 356.258 152.446C355.881 152.809 355.581 153.244 355.376 153.725C355.17 154.206 355.063 154.724 355.06 155.247C355.056 155.767 355.157 156.282 355.356 156.762C355.555 157.242 355.848 157.677 356.219 158.042C356.589 158.406 357.029 158.693 357.512 158.884C357.995 159.075 358.511 159.168 359.031 159.156ZM363.68 156.867C363.68 158.336 364.953 159.156 366.58 159.156C367.032 159.176 367.482 159.084 367.889 158.888C368.296 158.692 368.649 158.397 368.914 158.031V159H370.43V154.3C370.43 152.48 369.094 151.339 366.985 151.339C366.382 151.353 365.789 151.496 365.246 151.759C364.703 152.022 364.222 152.398 363.837 152.862L364.814 153.831C365.081 153.52 365.409 153.267 365.779 153.09C366.149 152.912 366.551 152.813 366.961 152.8C367.197 152.772 367.436 152.792 367.663 152.861C367.89 152.93 368.101 153.045 368.282 153.199C368.462 153.353 368.609 153.543 368.712 153.757C368.816 153.971 368.874 154.204 368.883 154.441V154.847C368.285 154.596 367.64 154.476 366.992 154.495C365.023 154.492 363.68 155.461 363.68 156.867ZM365.243 156.812C365.243 156 366.056 155.671 367.032 155.671C367.668 155.66 368.298 155.782 368.884 156.03C368.875 156.291 368.813 156.547 368.702 156.783C368.591 157.02 368.433 157.231 368.239 157.405C368.044 157.579 367.816 157.711 367.569 157.795C367.322 157.878 367.06 157.911 366.8 157.891C365.922 157.891 365.242 157.492 365.242 156.813L365.243 156.812ZM374.258 159V154.914C374.217 154.644 374.236 154.368 374.313 154.106C374.391 153.844 374.526 153.602 374.708 153.398C374.89 153.194 375.115 153.033 375.367 152.927C375.619 152.82 375.891 152.77 376.164 152.781C376.477 152.78 376.787 152.838 377.078 152.953L377.242 151.531C376.912 151.407 376.563 151.344 376.211 151.344C375.806 151.329 375.405 151.433 375.058 151.642C374.711 151.852 374.433 152.158 374.258 152.524V151.5H372.7V159H374.258ZM377.914 155.211C377.887 155.721 377.965 156.231 378.143 156.71C378.32 157.189 378.594 157.626 378.946 157.995C379.299 158.365 379.723 158.658 380.193 158.858C380.663 159.057 381.169 159.159 381.68 159.156C382.187 159.188 382.695 159.097 383.16 158.892C383.625 158.686 384.034 158.372 384.352 157.976V159H385.9V148H384.352V152.523C384.034 152.127 383.625 151.813 383.16 151.607C382.695 151.402 382.187 151.311 381.68 151.343C381.173 151.331 380.67 151.424 380.201 151.615C379.732 151.807 379.307 152.093 378.954 152.456C378.6 152.819 378.326 153.251 378.147 153.725C377.968 154.199 377.889 154.705 377.914 155.211ZM381.867 152.734C382.194 152.727 382.52 152.786 382.823 152.908C383.127 153.03 383.403 153.212 383.635 153.443C383.866 153.675 384.048 153.951 384.17 154.255C384.292 154.558 384.351 154.884 384.344 155.211C384.353 155.543 384.296 155.873 384.176 156.182C384.056 156.491 383.875 156.773 383.644 157.011C383.413 157.249 383.137 157.438 382.832 157.568C382.527 157.698 382.199 157.765 381.867 157.766C381.539 157.763 381.215 157.695 380.914 157.563C380.614 157.432 380.343 157.241 380.118 157.003C379.893 156.764 379.719 156.482 379.606 156.174C379.493 155.866 379.444 155.539 379.461 155.211C379.445 154.888 379.496 154.564 379.61 154.261C379.725 153.958 379.9 153.682 380.126 153.45C380.351 153.218 380.622 153.034 380.922 152.911C381.222 152.788 381.543 152.728 381.867 152.734Z" fill="#222222"/>
<path d="M247 29H38C32.4772 29 28 33.4772 28 39V281C28 286.523 32.4772 291 38 291H247C252.523 291 257 286.523 257 281V39C257 33.4772 252.523 29 247 29Z" fill="#F0BB77"/>
<path d="M51.5859 62C53.6639 62 54.8999 60.711 54.8999 59.1C54.9241 58.5492 54.7621 58.0063 54.4401 57.5588C54.1181 57.1113 53.6548 56.7852 53.1249 56.633C53.5719 56.4087 53.947 56.0636 54.2077 55.6369C54.4684 55.2102 54.6043 54.719 54.5999 54.219C54.5999 52.461 53.2089 51.391 51.2329 51.391H46.2729V62H51.5859ZM48.8439 55.711V53.539H50.7579C50.9072 53.5292 51.0568 53.5499 51.1978 53.5999C51.3387 53.6499 51.468 53.7281 51.5777 53.8298C51.6874 53.9314 51.7752 54.0544 51.8357 54.1911C51.8963 54.3278 51.9284 54.4755 51.9299 54.625C51.9349 54.7696 51.9099 54.9137 51.8566 55.0483C51.8032 55.1828 51.7227 55.3048 51.62 55.4068C51.5173 55.5087 51.3946 55.5884 51.2597 55.6407C51.1248 55.6931 50.9805 55.717 50.8359 55.711H48.8439ZM48.8439 59.859V57.68H50.9379C51.0885 57.6692 51.2397 57.6897 51.382 57.7403C51.5243 57.7908 51.6546 57.8702 51.7647 57.9735C51.8748 58.0768 51.9623 58.2018 52.0217 58.3406C52.0811 58.4794 52.1112 58.629 52.1099 58.78C52.1056 58.9284 52.0717 59.0744 52.0101 59.2094C51.9485 59.3445 51.8605 59.4659 51.7513 59.5664C51.6421 59.667 51.5139 59.7446 51.3742 59.7949C51.2345 59.8451 51.0862 59.8669 50.9379 59.859H48.8439ZM58.8749 62.156C59.2567 62.1662 59.6357 62.0883 59.9826 61.9284C60.3294 61.7686 60.6348 61.5309 60.8749 61.234V62H63.2109V57.547C63.2109 55.547 61.8359 54.347 59.5549 54.347C58.9162 54.3571 58.2865 54.4995 57.7056 54.7653C57.1247 55.031 56.6052 55.4143 56.1799 55.891L57.5389 57.352C57.765 57.0959 58.0416 56.8894 58.3514 56.7455C58.6612 56.6016 58.9975 56.5235 59.3389 56.516C60.2299 56.516 60.7449 56.946 60.7449 57.532V57.68C60.2561 57.5466 59.7516 57.4793 59.2449 57.48C57.5449 57.48 56.0729 58.38 56.0729 59.871C56.0779 61.3 57.2889 62.156 58.8749 62.156ZM58.4379 59.726C58.4379 59.242 58.9219 58.976 59.6879 58.976C60.0516 58.9761 60.4121 59.0439 60.7509 59.176C60.7558 59.3511 60.7242 59.5253 60.6583 59.6876C60.5924 59.8499 60.4936 59.9968 60.368 60.119C60.2425 60.2411 60.093 60.3359 59.9289 60.3974C59.7649 60.4588 59.5899 60.4856 59.4149 60.476C58.8439 60.477 58.4379 60.172 58.4379 59.727V59.726ZM68.6719 62.156C69.3885 62.1779 70.0978 62.0082 70.7268 61.6644C71.3558 61.3205 71.8816 60.815 72.2499 60.2L70.3909 58.844C70.2411 59.1551 70.009 59.4193 69.7197 59.6079C69.4305 59.7965 69.0951 59.9024 68.7499 59.914C68.5338 59.917 68.3194 59.8754 68.12 59.7919C67.9206 59.7084 67.7406 59.5848 67.5911 59.4287C67.4415 59.2726 67.3257 59.0874 67.2509 58.8846C67.176 58.6818 67.1437 58.4658 67.1559 58.25C67.1459 58.0358 67.1799 57.8219 67.2559 57.6214C67.3318 57.4208 67.4481 57.238 67.5975 57.0842C67.7469 56.9304 67.9262 56.8089 68.1245 56.7272C68.3227 56.6454 68.5356 56.6052 68.7499 56.609C69.0943 56.6063 69.4311 56.7095 69.7148 56.9046C69.9985 57.0998 70.2154 57.3775 70.3359 57.7L72.2359 56.348C71.8898 55.7304 71.383 55.2181 70.7693 54.8653C70.1556 54.5125 69.4578 54.3323 68.7499 54.344C68.2252 54.3215 67.7013 54.4063 67.2103 54.593C66.7194 54.7797 66.2716 55.0646 65.8944 55.4301C65.5172 55.7956 65.2184 56.2342 65.0163 56.719C64.8142 57.2038 64.713 57.7248 64.7189 58.25C64.704 58.771 64.7964 59.2895 64.9903 59.7733C65.1843 60.2571 65.4757 60.6958 65.8465 61.0622C66.2173 61.4285 66.6594 61.7147 67.1455 61.9029C67.6316 62.091 68.1512 62.1772 68.6719 62.156ZM73.7109 51V62H76.1719V59.867L76.8519 59.195L78.859 62H81.859L78.492 57.672L81.734 54.5H78.5229L76.1719 56.867V51H73.7109ZM85.344 51H82.8829V62H85.344V51ZM86.9529 58.25C86.947 58.7752 87.0482 59.2962 87.2503 59.781C87.4524 60.2658 87.7512 60.7044 88.1284 61.0699C88.5056 61.4354 88.9534 61.7203 89.4443 61.907C89.9353 62.0937 90.4592 62.1785 90.984 62.156C91.5088 62.1786 92.0328 62.094 92.5239 61.9073C93.0149 61.7206 93.4628 61.4358 93.8401 61.0703C94.2175 60.7048 94.5163 60.2661 94.7185 59.7812C94.9207 59.2963 95.0219 58.7753 95.0159 58.25C95.0219 57.7248 94.9207 57.2038 94.7186 56.719C94.5165 56.2342 94.2177 55.7956 93.8405 55.4301C93.4633 55.0646 93.0155 54.7797 92.5246 54.593C92.0336 54.4063 91.5097 54.3215 90.985 54.344C90.4601 54.3214 89.9361 54.406 89.445 54.5927C88.954 54.7794 88.5061 55.0642 88.1288 55.4297C87.7514 55.7952 87.4526 56.2339 87.2504 56.7188C87.0482 57.2037 86.947 57.7247 86.9529 58.25ZM89.3909 58.25C89.3809 58.0358 89.415 57.8219 89.4909 57.6214C89.5668 57.4208 89.6831 57.238 89.8325 57.0842C89.9819 56.9304 90.1612 56.8089 90.3595 56.7272C90.5577 56.6454 90.7706 56.6052 90.985 56.609C91.1992 56.6053 91.412 56.6457 91.6101 56.7275C91.8082 56.8093 91.9875 56.9308 92.1367 57.0846C92.286 57.2384 92.4022 57.4211 92.4781 57.6216C92.554 57.822 92.588 58.0359 92.5779 58.25C92.5902 58.4658 92.5579 58.6818 92.483 58.8846C92.4082 59.0874 92.2924 59.2726 92.1428 59.4287C91.9933 59.5848 91.8133 59.7084 91.6139 59.7919C91.4145 59.8754 91.2001 59.917 90.984 59.914C90.7679 59.9168 90.5536 59.8751 90.3543 59.7916C90.1551 59.708 89.9751 59.5844 89.8257 59.4283C89.6763 59.2722 89.5606 59.0871 89.4858 58.8844C89.411 58.6816 89.3787 58.4657 89.3909 58.25ZM96.118 63.656C96.5937 64.1886 97.1806 64.6102 97.8373 64.891C98.4939 65.1718 99.2042 65.3049 99.9179 65.281C102.012 65.281 104.285 64.211 104.285 61.734V54.5H101.9L101.822 55.289C101.549 54.9747 101.208 54.7263 100.825 54.5627C100.442 54.399 100.027 54.3242 99.611 54.344C99.1222 54.3613 98.642 54.4778 98.1996 54.6864C97.7572 54.895 97.3617 55.1912 97.0373 55.5573C96.7129 55.9233 96.4663 56.3514 96.3123 56.8157C96.1584 57.28 96.1005 57.7707 96.1419 58.258C96.101 58.7445 96.1594 59.2343 96.3137 59.6975C96.468 60.1607 96.7149 60.5877 97.0394 60.9526C97.3639 61.3174 97.7592 61.6124 98.2013 61.8196C98.6434 62.0268 99.123 62.142 99.611 62.158C100.027 62.179 100.442 62.1046 100.825 61.9405C101.208 61.7763 101.548 61.5268 101.82 61.211V61.633C101.82 62.75 100.72 63.172 99.8829 63.172C99.4521 63.1806 99.0242 63.0985 98.6271 62.9311C98.23 62.7636 97.8726 62.5145 97.5779 62.2L96.118 63.656ZM100.2 56.531C100.422 56.5288 100.643 56.5729 100.847 56.6604C101.052 56.7479 101.236 56.8769 101.388 57.0393C101.54 57.2016 101.657 57.3938 101.73 57.6036C101.804 57.8134 101.834 58.0362 101.817 58.258C101.835 58.4799 101.806 58.703 101.732 58.9131C101.658 59.1232 101.542 59.3156 101.39 59.4781C101.237 59.6405 101.053 59.7694 100.848 59.8565C100.643 59.9436 100.423 59.9871 100.2 59.984C99.9773 59.9871 99.7564 59.9436 99.5515 59.8564C99.3466 59.7693 99.1621 59.6403 99.0099 59.4777C98.8577 59.3152 98.7411 59.1226 98.6676 58.9124C98.5941 58.7022 98.5653 58.479 98.583 58.257C98.5654 58.0351 98.5943 57.812 98.6679 57.6019C98.7415 57.3918 98.8581 57.1994 99.0103 57.0369C99.1625 56.8745 99.3469 56.7456 99.5518 56.6585C99.7566 56.5714 99.9774 56.5279 100.2 56.531Z" fill="#4A3B28"/>
<path opacity="0.5" d="M45.3669 263.906V265.445H48.6999V268.82H50.3279V265.445H53.6799V263.906H50.3279V260.586H48.6999V263.906H45.3669ZM59.1089 270L59.9529 267.789H65.3119L66.1559 270H67.9059L63.5229 259.391H61.7419L57.3589 270H59.1089ZM60.4449 266.422L62.6329 261.222L64.8209 266.422H60.4449ZM68.5619 266.211C68.5354 266.721 68.6133 267.231 68.7908 267.71C68.9683 268.189 69.2418 268.626 69.5944 268.995C69.947 269.365 70.3713 269.658 70.8414 269.858C71.3114 270.057 71.8173 270.159 72.3279 270.156C72.8352 270.188 73.3426 270.097 73.8076 269.892C74.2725 269.687 74.6814 269.373 74.9999 268.977V270H76.5469V259H74.9999V263.523C74.6815 263.127 74.2727 262.813 73.8077 262.607C73.3427 262.402 72.8353 262.311 72.3279 262.343C71.8215 262.331 71.3181 262.424 70.8491 262.616C70.3802 262.807 69.9557 263.093 69.6024 263.456C69.2491 263.819 68.9744 264.251 68.7955 264.725C68.6167 265.199 68.5365 265.705 68.5619 266.211ZM72.5149 263.734C72.8422 263.727 73.1676 263.786 73.4713 263.908C73.7751 264.03 74.0511 264.212 74.2826 264.443C74.514 264.675 74.6962 264.951 74.8181 265.255C74.9401 265.558 74.9992 265.884 74.9919 266.211C75.0013 266.543 74.9442 266.873 74.824 267.182C74.7038 267.491 74.523 267.773 74.2921 268.011C74.0613 268.249 73.7851 268.438 73.4799 268.568C73.1747 268.698 72.8466 268.765 72.5149 268.766C72.187 268.763 71.8629 268.695 71.5623 268.563C71.2617 268.432 70.9908 268.241 70.766 268.003C70.5411 267.764 70.367 267.482 70.2541 267.174C70.1411 266.866 70.0918 266.539 70.1089 266.211C70.0931 265.887 70.144 265.564 70.2584 265.261C70.3729 264.958 70.5484 264.682 70.7742 264.449C70.9999 264.217 71.271 264.034 71.5707 263.911C71.8703 263.788 72.1921 263.727 72.5159 263.734H72.5149ZM78.3819 266.211C78.3554 266.721 78.4333 267.231 78.6108 267.71C78.7883 268.189 79.0618 268.626 79.4144 268.995C79.767 269.365 80.1913 269.658 80.6614 269.858C81.1314 270.057 81.6373 270.159 82.1479 270.156C82.6553 270.188 83.1627 270.097 83.6277 269.892C84.0927 269.686 84.5015 269.372 84.8199 268.976V270H86.3669V259H84.8199V263.523C84.5015 263.127 84.0927 262.813 83.6277 262.607C83.1627 262.402 82.6553 262.311 82.1479 262.343C81.6415 262.331 81.1381 262.424 80.6691 262.616C80.2002 262.807 79.7757 263.093 79.4224 263.456C79.0691 263.819 78.7944 264.251 78.6155 264.725C78.4367 265.199 78.3565 265.705 78.3819 266.211ZM82.3349 263.734C82.6622 263.727 82.9875 263.786 83.2913 263.908C83.5951 264.03 83.8711 264.212 84.1026 264.443C84.334 264.675 84.5162 264.951 84.6381 265.255C84.7601 265.558 84.8192 265.884 84.8119 266.211C84.8213 266.543 84.7642 266.873 84.644 267.182C84.5238 267.491 84.343 267.773 84.1121 268.011C83.8813 268.249 83.6051 268.438 83.2999 268.568C82.9947 268.698 82.6666 268.765 82.3349 268.766C82.0071 268.763 81.6831 268.694 81.3826 268.563C81.0822 268.432 80.8114 268.241 80.5866 268.002C80.3619 267.763 80.1879 267.482 80.075 267.174C79.9621 266.866 79.9128 266.538 79.9299 266.211C79.9141 265.888 79.965 265.564 80.0793 265.261C80.1937 264.958 80.3692 264.682 80.5948 264.45C80.8205 264.218 81.0915 264.034 81.391 263.911C81.6905 263.788 82.0112 263.728 82.3349 263.734ZM91.9129 267.867C91.9129 269.336 93.1859 270.156 94.8129 270.156C95.2649 270.177 95.7149 270.085 96.1225 269.888C96.53 269.692 96.8824 269.397 97.1479 269.031V270H98.6639V265.3C98.6639 263.48 97.3279 262.339 95.2189 262.339C94.6153 262.354 94.0218 262.498 93.4786 262.761C92.9354 263.025 92.455 263.402 92.0699 263.867L93.0469 264.836C93.3139 264.523 93.6433 264.269 94.0141 264.091C94.3848 263.912 94.7887 263.813 95.1999 263.8C95.4357 263.772 95.6748 263.792 95.9021 263.861C96.1295 263.93 96.3401 264.045 96.5207 264.199C96.7013 264.353 96.848 264.543 96.9515 264.757C97.055 264.971 97.113 265.204 97.1219 265.441V265.847C96.5238 265.596 95.8791 265.476 95.2309 265.495C93.2579 265.492 91.9139 266.461 91.9139 267.867H91.9129ZM93.4759 267.812C93.4759 267 94.2889 266.671 95.2649 266.671C95.9006 266.66 96.5314 266.782 97.1169 267.03C97.1073 267.29 97.0453 267.546 96.9347 267.781C96.8241 268.017 96.6671 268.228 96.4731 268.401C96.2791 268.575 96.0521 268.707 95.8057 268.791C95.5593 268.875 95.2985 268.908 95.0389 268.889C94.1559 268.891 93.4769 268.492 93.4769 267.813L93.4759 267.812ZM108.031 270.156C108.74 270.162 109.437 269.976 110.048 269.616C110.658 269.257 111.16 268.739 111.5 268.117L110.336 267.3C110.116 267.721 109.786 268.074 109.381 268.322C108.976 268.57 108.511 268.702 108.036 268.706C107.714 268.71 107.394 268.648 107.097 268.525C106.799 268.402 106.53 268.22 106.304 267.99C106.079 267.76 105.902 267.487 105.785 267.187C105.667 266.887 105.612 266.567 105.622 266.245C105.612 265.922 105.668 265.6 105.787 265.299C105.906 264.998 106.086 264.724 106.314 264.495C106.543 264.266 106.816 264.087 107.117 263.967C107.418 263.847 107.739 263.791 108.063 263.8C108.531 263.809 108.988 263.945 109.384 264.195C109.781 264.444 110.102 264.796 110.313 265.214L111.513 264.402C111.188 263.778 110.698 263.256 110.095 262.894C109.493 262.531 108.802 262.342 108.099 262.347C107.576 262.331 107.055 262.421 106.567 262.609C106.079 262.798 105.634 263.082 105.258 263.446C104.881 263.809 104.581 264.244 104.376 264.725C104.17 265.206 104.063 265.724 104.06 266.247C104.056 266.767 104.157 267.282 104.356 267.762C104.555 268.242 104.848 268.677 105.219 269.042C105.589 269.406 106.029 269.693 106.512 269.884C106.995 270.075 107.511 270.168 108.031 270.156ZM112.68 267.867C112.68 269.336 113.953 270.156 115.58 270.156C116.032 270.176 116.482 270.084 116.889 269.888C117.296 269.692 117.649 269.397 117.914 269.031V270H119.43V265.3C119.43 263.48 118.094 262.339 115.985 262.339C115.382 262.353 114.789 262.496 114.246 262.759C113.703 263.022 113.222 263.398 112.837 263.862L113.814 264.831C114.081 264.52 114.409 264.267 114.779 264.09C115.149 263.912 115.551 263.813 115.961 263.8C116.197 263.772 116.436 263.792 116.663 263.861C116.89 263.93 117.101 264.045 117.282 264.199C117.462 264.353 117.609 264.543 117.712 264.757C117.816 264.971 117.874 265.204 117.883 265.441V265.847C117.285 265.596 116.64 265.476 115.992 265.495C114.023 265.492 112.68 266.461 112.68 267.867ZM114.243 267.812C114.243 267 115.056 266.671 116.032 266.671C116.668 266.66 117.298 266.782 117.884 267.03C117.875 267.291 117.813 267.547 117.702 267.783C117.591 268.02 117.433 268.231 117.239 268.405C117.044 268.579 116.816 268.711 116.569 268.795C116.322 268.878 116.06 268.911 115.8 268.891C114.922 268.891 114.242 268.492 114.242 267.813L114.243 267.812ZM123.258 270V265.914C123.217 265.644 123.236 265.368 123.313 265.106C123.391 264.844 123.526 264.602 123.708 264.398C123.89 264.194 124.115 264.033 124.367 263.927C124.619 263.82 124.891 263.77 125.164 263.781C125.477 263.78 125.787 263.838 126.078 263.953L126.242 262.531C125.912 262.407 125.563 262.344 125.211 262.344C124.806 262.329 124.405 262.433 124.058 262.642C123.711 262.852 123.433 263.158 123.258 263.524V262.5H121.7V270H123.258ZM126.914 266.211C126.887 266.721 126.965 267.231 127.143 267.71C127.32 268.189 127.594 268.626 127.946 268.995C128.299 269.365 128.723 269.658 129.193 269.858C129.663 270.057 130.169 270.159 130.68 270.156C131.187 270.188 131.695 270.097 132.16 269.892C132.625 269.686 133.034 269.372 133.352 268.976V270H134.9V259H133.352V263.523C133.034 263.127 132.625 262.813 132.16 262.607C131.695 262.402 131.187 262.311 130.68 262.343C130.173 262.331 129.67 262.424 129.201 262.615C128.732 262.807 128.307 263.093 127.954 263.456C127.6 263.819 127.326 264.251 127.147 264.725C126.968 265.199 126.889 265.705 126.914 266.211ZM130.867 263.734C131.194 263.727 131.52 263.786 131.823 263.908C132.127 264.03 132.403 264.212 132.635 264.443C132.866 264.675 133.048 264.951 133.17 265.255C133.292 265.558 133.351 265.884 133.344 266.211C133.353 266.543 133.296 266.873 133.176 267.182C133.056 267.491 132.875 267.773 132.644 268.011C132.413 268.249 132.137 268.438 131.832 268.568C131.527 268.698 131.199 268.765 130.867 268.766C130.539 268.763 130.215 268.695 129.914 268.563C129.614 268.432 129.343 268.241 129.118 268.003C128.893 267.764 128.719 267.482 128.606 267.174C128.493 266.866 128.444 266.539 128.461 266.211C128.445 265.888 128.496 265.564 128.61 265.261C128.725 264.958 128.9 264.682 129.126 264.45C129.351 264.218 129.622 264.034 129.922 263.911C130.222 263.788 130.543 263.728 130.867 263.734Z" fill="#222222"/>
<path d="M235 82H50C47.2386 82 45 84.2386 45 87V122C45 124.761 47.2386 127 50 127H235C237.761 127 240 124.761 240 122V87C240 84.2386 237.761 82 235 82Z" fill="white"/>
<path d="M67.266 111C67.6878 111.026 68.1104 110.966 68.5084 110.824C68.9064 110.682 69.2716 110.461 69.5818 110.174C69.892 109.887 70.141 109.541 70.3136 109.155C70.4861 108.769 70.5788 108.352 70.586 107.93C70.595 107.416 70.4513 106.91 70.1731 106.478C69.8949 106.045 69.4947 105.705 69.023 105.5C69.3837 105.272 69.6802 104.956 69.8841 104.581C70.088 104.206 70.1926 103.786 70.188 103.359C70.1863 102.947 70.0995 102.539 69.9328 102.162C69.7662 101.785 69.5235 101.447 69.2198 101.168C68.9161 100.889 68.5581 100.676 68.1682 100.542C67.7783 100.408 67.3649 100.357 66.954 100.39H62.375V111H67.266ZM64.023 104.906V101.852H66.953C67.1597 101.844 67.3659 101.879 67.5588 101.954C67.7517 102.028 67.9274 102.142 68.0751 102.286C68.2228 102.431 68.3394 102.605 68.4178 102.796C68.4961 102.988 68.5347 103.193 68.531 103.4C68.5321 103.604 68.4915 103.807 68.4116 103.994C68.3318 104.182 68.2144 104.352 68.0666 104.493C67.9189 104.634 67.7439 104.744 67.5524 104.814C67.3609 104.885 67.157 104.917 66.953 104.906H64.023ZM64.023 106.289H67.266C67.4835 106.282 67.7002 106.318 67.9035 106.396C68.1068 106.473 68.2928 106.59 68.4505 106.74C68.6082 106.89 68.7345 107.07 68.8222 107.269C68.9098 107.468 68.957 107.682 68.961 107.9C68.9633 108.121 68.9204 108.34 68.835 108.543C68.7495 108.747 68.6232 108.931 68.464 109.084C68.3047 109.237 68.1158 109.356 67.9089 109.433C67.702 109.51 67.4815 109.544 67.261 109.533H64.023V106.289ZM74.031 111V106.914C73.9896 106.644 74.0086 106.368 74.0864 106.106C74.1642 105.844 74.299 105.602 74.4812 105.398C74.6633 105.194 74.8883 105.033 75.14 104.927C75.3917 104.82 75.6638 104.77 75.937 104.781C76.2498 104.78 76.5599 104.838 76.851 104.953L77.015 103.531C76.6854 103.407 76.3361 103.344 75.984 103.344C75.5789 103.329 75.1782 103.433 74.8313 103.642C74.4843 103.852 74.2061 104.158 74.031 104.524V103.5H72.477V111H74.031ZM77.75 108.867C77.75 110.336 79.023 111.156 80.65 111.156C81.1018 111.176 81.5516 111.084 81.959 110.888C82.3664 110.692 82.7186 110.397 82.984 110.031V111H84.5V106.3C84.5 104.48 83.164 103.339 81.055 103.339C80.4519 103.353 79.8589 103.496 79.3159 103.759C78.7728 104.022 78.2924 104.398 77.907 104.862L78.884 105.831C79.1508 105.52 79.4794 105.267 79.849 105.09C80.2187 104.912 80.6212 104.813 81.031 104.8C81.2668 104.772 81.5059 104.792 81.7332 104.861C81.9605 104.93 82.1712 105.045 82.3518 105.199C82.5324 105.353 82.679 105.543 82.7825 105.757C82.886 105.971 82.9441 106.204 82.953 106.441V106.847C82.3549 106.596 81.7102 106.476 81.062 106.495C79.094 106.492 77.75 107.461 77.75 108.867ZM79.313 108.812C79.313 108 80.126 107.671 81.102 107.671C81.7376 107.66 82.3685 107.782 82.954 108.03C82.9444 108.29 82.8824 108.546 82.7717 108.781C82.6611 109.017 82.5041 109.228 82.3101 109.401C82.1162 109.575 81.8892 109.707 81.6428 109.791C81.3963 109.875 81.1356 109.908 80.876 109.889C79.992 109.891 79.313 109.491 79.313 108.812ZM88.32 111V106.773C88.3141 106.504 88.3644 106.238 88.4678 105.99C88.5712 105.742 88.7253 105.518 88.9203 105.334C89.1153 105.149 89.3468 105.007 89.5999 104.917C89.8531 104.827 90.1222 104.792 90.39 104.812C90.647 104.794 90.9047 104.834 91.1445 104.928C91.3843 105.022 91.6002 105.168 91.7766 105.356C91.9531 105.543 92.0856 105.768 92.1647 106.013C92.2438 106.258 92.2675 106.518 92.234 106.773V111H93.781V106.445C93.8142 106.025 93.7552 105.603 93.6081 105.209C93.461 104.814 93.2293 104.457 92.9293 104.162C92.6293 103.866 92.2683 103.64 91.8716 103.499C91.4749 103.358 91.0521 103.305 90.633 103.345C90.1884 103.323 89.7453 103.412 89.3437 103.604C88.9421 103.796 88.5947 104.085 88.333 104.445V103.5H86.773V111H88.32ZM95.52 107.211C95.4935 107.721 95.5712 108.23 95.7484 108.709C95.9257 109.187 96.1987 109.624 96.5507 109.994C96.9028 110.363 97.3265 110.656 97.796 110.856C98.2655 111.056 98.7708 111.158 99.281 111.156C99.7883 111.188 100.296 111.097 100.761 110.892C101.226 110.686 101.635 110.372 101.953 109.976V111H103.5V100H101.953V104.523C101.635 104.127 101.226 103.813 100.761 103.607C100.296 103.402 99.7883 103.311 99.281 103.343C98.7746 103.331 98.2711 103.424 97.8022 103.616C97.3332 103.807 96.9088 104.093 96.5555 104.456C96.2021 104.819 95.9274 105.251 95.7486 105.725C95.5697 106.199 95.4906 106.705 95.516 107.211H95.52ZM99.473 104.734C99.8003 104.727 100.126 104.786 100.429 104.908C100.733 105.03 101.009 105.212 101.241 105.443C101.472 105.675 101.654 105.951 101.776 106.255C101.898 106.558 101.957 106.884 101.95 107.211C101.959 107.543 101.902 107.873 101.782 108.182C101.662 108.491 101.481 108.773 101.25 109.011C101.019 109.249 100.743 109.438 100.438 109.568C100.133 109.698 99.8046 109.765 99.473 109.766C99.145 109.763 98.821 109.695 98.5204 109.563C98.2198 109.432 97.9489 109.241 97.724 109.003C97.4992 108.764 97.3251 108.482 97.2121 108.174C97.0992 107.866 97.0498 107.539 97.067 107.211C97.0512 106.888 97.1019 106.565 97.2161 106.262C97.3302 105.96 97.5053 105.684 97.7305 105.451C97.9557 105.219 98.2262 105.036 98.5253 104.912C98.8243 104.789 99.1456 104.728 99.469 104.734H99.473ZM114.531 111.156C115.21 111.19 115.889 111.082 116.525 110.839C117.16 110.596 117.738 110.224 118.222 109.746C118.706 109.267 119.084 108.693 119.334 108.06C119.584 107.428 119.699 106.75 119.672 106.07C119.673 105.864 119.663 105.658 119.641 105.453H114.281V106.937H117.937C117.813 107.73 117.392 108.446 116.76 108.941C116.127 109.435 115.331 109.671 114.531 109.6C114.022 109.61 113.516 109.515 113.045 109.32C112.574 109.126 112.148 108.837 111.793 108.472C111.438 108.106 111.163 107.671 110.983 107.194C110.804 106.717 110.725 106.209 110.75 105.7C110.721 105.193 110.796 104.686 110.972 104.21C111.148 103.734 111.419 103.299 111.77 102.932C112.122 102.566 112.544 102.275 113.013 102.08C113.481 101.884 113.985 101.787 114.492 101.794C115.138 101.782 115.776 101.935 116.347 102.239C116.917 102.543 117.4 102.988 117.75 103.531L119.023 102.64C118.532 101.89 117.859 101.275 117.067 100.855C116.275 100.434 115.389 100.221 114.492 100.234C113.772 100.223 113.057 100.357 112.389 100.628C111.722 100.899 111.116 101.301 110.607 101.811C110.098 102.321 109.697 102.928 109.428 103.596C109.159 104.264 109.026 104.98 109.039 105.7C109.031 106.422 109.169 107.137 109.442 107.805C109.716 108.473 110.121 109.079 110.633 109.588C111.145 110.096 111.754 110.497 112.423 110.767C113.093 111.036 113.809 111.168 114.531 111.156ZM121.359 103.5V108.055C121.325 108.473 121.384 108.894 121.53 109.288C121.676 109.682 121.906 110.039 122.204 110.334C122.503 110.629 122.862 110.856 123.257 110.997C123.653 111.139 124.074 111.193 124.492 111.155C124.944 111.182 125.395 111.096 125.804 110.904C126.214 110.712 126.568 110.42 126.836 110.055V111H128.391V103.5H126.844V107.727C126.849 107.999 126.796 108.268 126.69 108.518C126.584 108.768 126.426 108.993 126.227 109.178C126.028 109.363 125.792 109.504 125.535 109.592C125.278 109.68 125.006 109.712 124.735 109.688C124.479 109.704 124.223 109.663 123.985 109.568C123.747 109.473 123.532 109.327 123.358 109.139C123.183 108.952 123.052 108.728 122.974 108.484C122.896 108.24 122.873 107.981 122.907 107.727V103.5H121.359ZM130.586 100.984C130.58 101.111 130.6 101.237 130.646 101.356C130.692 101.474 130.762 101.582 130.851 101.672C130.941 101.761 131.049 101.831 131.167 101.877C131.286 101.923 131.412 101.943 131.539 101.937C131.666 101.943 131.793 101.923 131.912 101.877C132.031 101.832 132.139 101.762 132.229 101.672C132.32 101.583 132.391 101.475 132.437 101.357C132.484 101.238 132.505 101.111 132.5 100.984C132.505 100.857 132.484 100.73 132.437 100.611C132.391 100.493 132.32 100.385 132.229 100.296C132.139 100.206 132.031 100.136 131.912 100.091C131.793 100.045 131.666 100.025 131.539 100.031C131.412 100.025 131.286 100.045 131.167 100.091C131.049 100.137 130.941 100.207 130.851 100.296C130.762 100.386 130.692 100.494 130.646 100.612C130.6 100.731 130.58 100.857 130.586 100.984ZM132.313 111V103.5H130.766V111H132.313ZM134.149 107.211C134.122 107.721 134.2 108.231 134.378 108.71C134.555 109.188 134.829 109.626 135.181 109.995C135.534 110.364 135.958 110.658 136.428 110.858C136.898 111.057 137.403 111.159 137.914 111.156C138.421 111.188 138.929 111.097 139.394 110.892C139.859 110.686 140.268 110.372 140.586 109.976V111H142.133V100H140.586V104.523C140.268 104.127 139.859 103.813 139.394 103.607C138.929 103.402 138.421 103.311 137.914 103.343C137.407 103.331 136.904 103.424 136.435 103.615C135.966 103.807 135.541 104.093 135.188 104.456C134.834 104.819 134.56 105.251 134.381 105.725C134.202 106.199 134.124 106.705 134.149 107.211ZM138.1 104.734C138.427 104.727 138.753 104.786 139.056 104.908C139.36 105.03 139.636 105.212 139.868 105.443C140.099 105.675 140.281 105.951 140.403 106.255C140.525 106.558 140.584 106.884 140.577 107.211C140.586 107.543 140.529 107.873 140.409 108.182C140.289 108.491 140.108 108.773 139.877 109.011C139.646 109.249 139.37 109.438 139.065 109.568C138.76 109.698 138.432 109.765 138.1 109.766C137.773 109.763 137.449 109.693 137.149 109.562C136.849 109.43 136.579 109.239 136.355 109C136.131 108.762 135.957 108.48 135.845 108.173C135.732 107.865 135.683 107.538 135.7 107.211C135.684 106.888 135.735 106.565 135.849 106.263C135.963 105.96 136.138 105.684 136.363 105.452C136.588 105.22 136.858 105.036 137.157 104.913C137.456 104.789 137.777 104.728 138.1 104.734ZM143.959 107.257C143.947 107.775 144.04 108.29 144.234 108.771C144.427 109.252 144.717 109.688 145.084 110.053C145.452 110.418 145.891 110.704 146.373 110.894C146.855 111.084 147.371 111.173 147.889 111.157C148.573 111.168 149.247 110.997 149.842 110.662C150.438 110.327 150.935 109.839 151.281 109.25L150.14 108.422C149.915 108.818 149.588 109.146 149.192 109.371C148.796 109.596 148.346 109.71 147.891 109.7C147.32 109.732 146.758 109.542 146.324 109.169C145.89 108.796 145.617 108.27 145.563 107.7H151.383C151.427 107.463 151.448 107.222 151.446 106.981C151.464 106.501 151.384 106.022 151.209 105.575C151.035 105.127 150.77 104.72 150.432 104.38C150.093 104.039 149.688 103.771 149.242 103.594C148.795 103.416 148.317 103.333 147.837 103.348C147.321 103.333 146.808 103.424 146.328 103.616C145.849 103.808 145.414 104.096 145.051 104.462C144.688 104.829 144.403 105.266 144.216 105.747C144.028 106.228 143.942 106.742 143.961 107.258L143.959 107.257ZM145.6 106.539C145.691 106.022 145.966 105.555 146.373 105.225C146.781 104.894 147.294 104.722 147.819 104.739C148.326 104.721 148.822 104.897 149.204 105.231C149.586 105.566 149.825 106.034 149.874 106.539H145.6Z" fill="#11081A"/>
<path d="M235 138H50C47.2386 138 45 140.239 45 143V178C45 180.761 47.2386 183 50 183H235C237.761 183 240 180.761 240 178V143C240 140.239 237.761 138 235 138Z" fill="white"/>
<path d="M61.719 163.75C62.1071 164.514 62.7091 165.148 63.4516 165.575C64.194 166.002 65.0448 166.204 65.9 166.156C67.72 166.156 69.7 165.164 69.7 163.148C69.7 161.093 68.052 160.548 66.075 159.875C64.57 159.367 63.7 159.117 63.7 158.18C63.7 157.243 64.653 156.727 65.661 156.727C66.1884 156.735 66.7036 156.888 67.151 157.167C67.5984 157.447 67.961 157.843 68.2 158.313L69.473 157.422C69.1084 156.738 68.5587 156.17 67.8868 155.783C67.2149 155.397 66.4477 155.207 65.673 155.235C63.9 155.234 62.07 156.25 62.055 158.188C62.039 160.063 63.625 160.735 65.641 161.388C67.204 161.888 68.047 162.279 68.047 163.169C68.047 164.099 67.094 164.685 65.867 164.685C65.2585 164.707 64.6568 164.55 64.1372 164.233C63.6175 163.915 63.2029 163.452 62.945 162.9L61.719 163.75ZM75.008 166.156C75.5287 166.171 76.0471 166.081 76.5321 165.891C77.0172 165.701 77.4589 165.415 77.8309 165.05C78.2028 164.686 78.4974 164.25 78.6969 163.769C78.8964 163.287 78.9968 162.771 78.992 162.25C78.9968 161.729 78.8964 161.213 78.6969 160.731C78.4974 160.25 78.2028 159.814 77.8309 159.45C77.4589 159.085 77.0172 158.799 76.5321 158.609C76.0471 158.419 75.5287 158.329 75.008 158.344C74.4872 158.329 73.9687 158.419 73.4835 158.609C72.9984 158.799 72.5565 159.084 72.1845 159.449C71.8124 159.814 71.5177 160.25 71.3182 160.731C71.1186 161.212 71.0182 161.729 71.023 162.25C71.0182 162.771 71.1186 163.288 71.3182 163.769C71.5177 164.25 71.8124 164.686 72.1845 165.051C72.5565 165.416 72.9984 165.701 73.4835 165.891C73.9687 166.081 74.4872 166.171 75.008 166.156ZM72.57 162.25C72.5612 161.927 72.6182 161.605 72.7375 161.305C72.8568 161.005 73.0358 160.732 73.2638 160.502C73.4918 160.273 73.764 160.093 74.0638 159.972C74.3636 159.851 74.6849 159.793 75.008 159.8C75.3311 159.793 75.6522 159.852 75.9519 159.972C76.2516 160.093 76.5236 160.274 76.7515 160.503C76.9794 160.732 77.1584 161.005 77.2776 161.305C77.3968 161.606 77.4537 161.927 77.445 162.25C77.4537 162.573 77.3968 162.894 77.2776 163.195C77.1584 163.495 76.9794 163.768 76.7515 163.997C76.5236 164.226 76.2516 164.407 75.9519 164.528C75.6522 164.648 75.3311 164.707 75.008 164.7C74.6849 164.707 74.3636 164.649 74.0638 164.528C73.764 164.407 73.4918 164.227 73.2638 163.998C73.0358 163.768 72.8568 163.495 72.7375 163.195C72.6182 162.895 72.5612 162.573 72.57 162.25ZM84.234 166.156C84.9421 166.161 85.6385 165.975 86.2489 165.616C86.8592 165.257 87.3608 164.739 87.7 164.117L86.539 163.3C86.3193 163.721 85.9892 164.074 85.584 164.322C85.1789 164.57 84.7139 164.702 84.239 164.706C83.9163 164.71 83.5961 164.649 83.2976 164.526C82.9992 164.404 82.7288 164.221 82.5027 163.991C82.2766 163.761 82.0996 163.487 81.9822 163.186C81.8649 162.886 81.8097 162.565 81.82 162.242C81.8104 161.918 81.8672 161.596 81.9868 161.295C82.1064 160.994 82.2862 160.721 82.5154 160.493C82.7445 160.264 83.018 160.084 83.3191 159.965C83.6201 159.846 83.9424 159.79 84.266 159.8C84.7341 159.809 85.1909 159.945 85.5873 160.195C85.9837 160.444 86.3048 160.796 86.516 161.214L87.716 160.402C87.3917 159.777 86.901 159.255 86.2981 158.891C85.6953 158.528 85.0038 158.339 84.3 158.344C83.777 158.328 83.2562 158.418 82.7683 158.606C82.2803 158.795 81.835 159.079 81.4586 159.443C81.0823 159.806 80.7824 160.241 80.5767 160.722C80.371 161.203 80.2637 161.721 80.261 162.244C80.2568 162.764 80.3572 163.28 80.5562 163.76C80.7551 164.241 81.0486 164.676 81.4192 165.041C81.7898 165.406 82.2299 165.693 82.7134 165.884C83.197 166.076 83.7141 166.168 84.234 166.156ZM89.2 155.984C89.1938 156.111 89.2143 156.237 89.26 156.356C89.3057 156.474 89.3757 156.582 89.4655 156.672C89.5552 156.761 89.6627 156.831 89.7811 156.877C89.8996 156.923 90.0262 156.943 90.153 156.937C90.2802 156.943 90.4072 156.923 90.5261 156.877C90.645 156.832 90.753 156.762 90.8434 156.672C90.9338 156.583 91.0046 156.475 91.0512 156.357C91.0977 156.238 91.1191 156.111 91.114 155.984C91.1191 155.857 91.0977 155.73 91.0512 155.611C91.0046 155.493 90.9338 155.385 90.8434 155.296C90.753 155.206 90.645 155.136 90.5261 155.091C90.4072 155.045 90.2802 155.025 90.153 155.031C90.0262 155.025 89.8996 155.045 89.7811 155.091C89.6627 155.137 89.5552 155.207 89.4655 155.296C89.3757 155.386 89.3057 155.494 89.26 155.612C89.2143 155.731 89.1938 155.857 89.2 155.984ZM90.93 166V158.5H89.383V166H90.93ZM92.8 163.867C92.8 165.336 94.078 166.156 95.7 166.156C96.1526 166.177 96.6034 166.086 97.0117 165.889C97.4201 165.693 97.7731 165.398 98.039 165.031V166H99.555V161.3C99.555 159.48 98.219 158.339 96.11 158.339C95.5069 158.353 94.9139 158.496 94.3708 158.759C93.8278 159.022 93.3474 159.398 92.962 159.862L93.939 160.831C94.2057 160.52 94.5344 160.267 94.904 160.09C95.2737 159.912 95.6762 159.813 96.086 159.8C96.3218 159.772 96.5609 159.792 96.7882 159.861C97.0155 159.93 97.2261 160.045 97.4067 160.199C97.5874 160.353 97.734 160.543 97.8375 160.757C97.941 160.971 97.999 161.204 98.008 161.441V161.847C97.4099 161.596 96.7652 161.476 96.117 161.495C94.148 161.492 92.8 162.461 92.8 163.867ZM94.363 163.812C94.363 163 95.176 162.671 96.152 162.671C96.7876 162.66 97.4185 162.782 98.004 163.03C97.9946 163.29 97.9329 163.545 97.8227 163.781C97.7124 164.016 97.5558 164.227 97.3622 164.401C97.1686 164.575 96.9421 164.708 96.696 164.792C96.4499 164.876 96.1894 164.91 95.93 164.891C95.047 164.891 94.367 164.492 94.367 163.813L94.363 163.812ZM103.375 155H101.828V166H103.375V155ZM111.25 166V162.047H113.969C114.429 162.09 114.894 162.036 115.332 161.887C115.77 161.739 116.172 161.5 116.511 161.186C116.851 160.872 117.121 160.49 117.303 160.065C117.485 159.64 117.576 159.181 117.569 158.719C117.577 158.256 117.488 157.797 117.306 157.372C117.124 156.946 116.855 156.564 116.514 156.251C116.174 155.937 115.772 155.699 115.333 155.552C114.894 155.405 114.429 155.353 113.969 155.399H109.609V166H111.25ZM111.25 156.891H113.9C114.153 156.863 114.409 156.89 114.65 156.97C114.892 157.051 115.113 157.182 115.3 157.355C115.486 157.529 115.632 157.741 115.729 157.976C115.826 158.211 115.871 158.465 115.861 158.719C115.87 158.973 115.824 159.226 115.727 159.461C115.629 159.695 115.483 159.907 115.297 160.08C115.111 160.253 114.89 160.385 114.649 160.465C114.408 160.546 114.153 160.574 113.9 160.547H111.25V156.891ZM122.445 166.156C122.966 166.171 123.484 166.081 123.969 165.891C124.455 165.701 124.896 165.416 125.269 165.051C125.641 164.686 125.935 164.25 126.135 163.769C126.334 163.288 126.435 162.771 126.43 162.25C126.435 161.729 126.334 161.213 126.135 160.731C125.935 160.25 125.641 159.814 125.269 159.45C124.897 159.085 124.455 158.799 123.97 158.609C123.485 158.419 122.967 158.329 122.446 158.344C121.925 158.329 121.407 158.419 120.922 158.609C120.436 158.799 119.995 159.084 119.622 159.449C119.25 159.814 118.956 160.25 118.756 160.731C118.557 161.212 118.456 161.729 118.461 162.25C118.456 162.771 118.557 163.287 118.756 163.769C118.956 164.25 119.25 164.686 119.622 165.05C119.994 165.415 120.436 165.701 120.921 165.891C121.406 166.081 121.924 166.171 122.445 166.156ZM120.008 162.25C119.999 161.927 120.056 161.606 120.175 161.305C120.295 161.005 120.474 160.732 120.701 160.503C120.929 160.274 121.201 160.093 121.501 159.972C121.801 159.852 122.122 159.793 122.445 159.8C122.768 159.793 123.089 159.851 123.389 159.972C123.689 160.093 123.961 160.273 124.189 160.502C124.417 160.732 124.596 161.005 124.715 161.305C124.835 161.605 124.892 161.927 124.883 162.25C124.892 162.573 124.835 162.895 124.715 163.195C124.596 163.495 124.417 163.768 124.189 163.998C123.961 164.227 123.689 164.407 123.389 164.528C123.089 164.649 122.768 164.707 122.445 164.7C122.122 164.707 121.801 164.648 121.501 164.528C121.201 164.407 120.929 164.226 120.701 163.997C120.474 163.768 120.295 163.495 120.175 163.195C120.056 162.894 119.999 162.573 120.008 162.25ZM127.672 164.422C128.005 164.978 128.482 165.432 129.053 165.738C129.624 166.043 130.267 166.188 130.914 166.156C132.508 166.156 133.883 165.273 133.883 163.906C133.883 162.476 132.821 161.945 131.183 161.547C130.083 161.281 129.527 161.125 129.527 160.555C129.527 160.071 130.027 159.755 130.769 159.755C131.151 159.752 131.527 159.845 131.864 160.024C132.201 160.203 132.489 160.463 132.7 160.781L133.739 159.89C133.416 159.402 132.973 159.004 132.454 158.733C131.935 158.463 131.355 158.328 130.77 158.343C129.242 158.344 128 159.219 128 160.578C128 162.062 129.148 162.57 130.758 162.93C131.858 163.18 132.321 163.352 132.321 163.907C132.321 164.415 131.721 164.735 130.915 164.735C130.486 164.738 130.064 164.624 129.694 164.405C129.325 164.186 129.023 163.87 128.82 163.492L127.672 164.422ZM136.141 159.813V163.75C136.121 164.084 136.175 164.419 136.299 164.73C136.423 165.042 136.614 165.322 136.858 165.552C137.102 165.781 137.393 165.954 137.712 166.059C138.03 166.163 138.367 166.196 138.7 166.156C139.264 166.164 139.823 166.053 140.341 165.828L140.141 164.5C139.754 164.659 139.341 164.747 138.922 164.758C138.758 164.779 138.592 164.763 138.435 164.711C138.278 164.659 138.135 164.571 138.017 164.456C137.899 164.34 137.809 164.2 137.753 164.044C137.697 163.888 137.677 163.722 137.695 163.558V159.808H140.062V158.5H137.672V156.094H136.164V158.5H134.8V159.813H136.141Z" fill="#222222"/>
<g opacity="0.249">
<path d="M221.5 58C222.881 58 224 56.8807 224 55.5C224 54.1193 222.881 53 221.5 53C220.119 53 219 54.1193 219 55.5C219 56.8807 220.119 58 221.5 58Z" fill="black"/>
<path d="M229.5 58C230.881 58 232 56.8807 232 55.5C232 54.1193 230.881 53 229.5 53C228.119 53 227 54.1193 227 55.5C227 56.8807 228.119 58 229.5 58Z" fill="black"/>
<path d="M237.5 58C238.881 58 240 56.8807 240 55.5C240 54.1193 238.881 53 237.5 53C236.119 53 235 54.1193 235 55.5C235 56.8807 236.119 58 237.5 58Z" fill="black"/>
</g>
<g filter="url(#filter0_d_619_559)">
<path d="M301.001 176H26.001C21.5827 176 18.001 179.582 18.001 184V235C18.001 239.418 21.5827 243 26.001 243H301.001C305.419 243 309.001 239.418 309.001 235V184C309.001 179.582 305.419 176 301.001 176Z" fill="white"/>
</g>
<path d="M51.0069 217C51.6133 217.037 52.2208 216.951 52.7929 216.747C53.3651 216.542 53.8899 216.225 54.3359 215.812C54.7819 215.4 55.1397 214.901 55.3879 214.347C55.6361 213.792 55.7694 213.193 55.7799 212.586C55.793 211.847 55.5866 211.121 55.1868 210.499C54.787 209.877 54.2118 209.388 53.5339 209.093C54.0517 208.765 54.4771 208.31 54.7698 207.772C55.0626 207.233 55.2131 206.629 55.2069 206.016C55.2045 205.423 55.0796 204.838 54.84 204.296C54.6005 203.754 54.2515 203.267 53.815 202.866C53.3784 202.465 52.8638 202.159 52.3033 201.967C51.7428 201.774 51.1486 201.7 50.5579 201.748H43.9769V217H51.0069ZM46.3459 208.24V203.849H50.5579C50.8551 203.838 51.1514 203.887 51.4288 203.995C51.7062 204.102 51.9588 204.264 52.1711 204.473C52.3835 204.681 52.5512 204.93 52.664 205.205C52.7767 205.48 52.8322 205.776 52.8269 206.073C52.8284 206.367 52.7699 206.658 52.6551 206.928C52.5403 207.198 52.3715 207.442 52.1591 207.645C51.9467 207.848 51.6952 208.005 51.4198 208.108C51.1445 208.21 50.8512 208.255 50.5579 208.24H46.3459ZM46.3459 210.228H51.0069C51.3193 210.218 51.6306 210.27 51.9227 210.381C52.2149 210.492 52.482 210.66 52.7087 210.875C52.9354 211.09 53.1172 211.348 53.2434 211.634C53.3696 211.92 53.4377 212.228 53.4439 212.541C53.4473 212.858 53.3859 213.172 53.2634 213.464C53.141 213.757 52.9601 214.021 52.7319 214.241C52.5037 214.461 52.233 214.631 51.9364 214.743C51.6397 214.854 51.3235 214.904 51.0069 214.889H46.3459V210.228ZM58.3509 206.219V212.766C58.3023 213.367 58.3857 213.972 58.5952 214.538C58.8048 215.104 59.1354 215.617 59.5641 216.042C59.9927 216.466 60.509 216.792 61.0767 216.996C61.6445 217.201 62.25 217.278 62.8509 217.224C63.5001 217.263 64.1486 217.138 64.7371 216.862C65.3257 216.585 65.8355 216.165 66.2199 215.641V217H68.4549V206.219H66.2349V212.295C66.2416 212.686 66.1659 213.073 66.0128 213.433C65.8597 213.792 65.6326 214.115 65.3463 214.381C65.06 214.647 64.7208 214.85 64.351 214.976C63.9812 215.102 63.589 215.149 63.1999 215.113C62.8321 215.136 62.4638 215.077 62.1214 214.941C61.779 214.805 61.4711 214.594 61.2198 214.325C60.9685 214.055 60.78 213.733 60.668 213.382C60.556 213.031 60.5232 212.659 60.5719 212.294V206.218L58.3509 206.219ZM71.0409 214.732C71.519 215.53 72.2049 216.184 73.0255 216.623C73.846 217.062 74.7704 217.27 75.6999 217.225C77.9909 217.225 79.9679 215.956 79.9679 213.991C79.9679 211.936 78.4409 211.172 76.0929 210.599C74.5099 210.217 73.7119 209.993 73.7119 209.173C73.7119 208.473 74.4309 208.027 75.4979 208.027C76.0465 208.023 76.5876 208.155 77.0722 208.412C77.5568 208.67 77.9698 209.043 78.2739 209.5L79.7679 208.22C79.3033 207.518 78.6679 206.945 77.9213 206.556C77.1748 206.167 76.3416 205.973 75.4999 205.994C73.2999 205.994 71.5129 207.252 71.5129 209.206C71.5129 211.34 73.1639 212.07 75.4769 212.586C77.0599 212.945 77.7229 213.192 77.7229 213.986C77.7229 214.716 76.8579 215.176 75.7019 215.176C75.0864 215.181 74.481 215.019 73.9508 214.706C73.4207 214.393 72.9858 213.941 72.6929 213.4L71.0409 214.732ZM82.4179 202.6C82.4092 202.782 82.4387 202.964 82.5045 203.134C82.5702 203.305 82.6708 203.459 82.7998 203.588C82.9288 203.717 83.0834 203.818 83.2535 203.883C83.4237 203.949 83.6057 203.979 83.7879 203.97C83.9708 203.979 84.1535 203.95 84.3245 203.884C84.4954 203.819 84.6509 203.719 84.7809 203.59C84.9109 203.461 85.0127 203.306 85.0797 203.136C85.1466 202.965 85.1774 202.783 85.1699 202.6C85.1774 202.417 85.1466 202.235 85.0797 202.064C85.0128 201.894 84.9112 201.74 84.7812 201.611C84.6513 201.482 84.496 201.381 84.3252 201.316C84.1543 201.25 83.9717 201.221 83.7889 201.23C83.6066 201.221 83.4245 201.251 83.2542 201.316C83.0839 201.382 82.9293 201.482 82.8002 201.612C82.6711 201.741 82.5704 201.895 82.5045 202.065C82.4387 202.236 82.4092 202.418 82.4179 202.6ZM84.8999 217V206.219H82.6769V217H84.8999ZM90.5379 217V210.924C90.5293 210.538 90.6015 210.154 90.7502 209.798C90.8988 209.441 91.1204 209.12 91.4007 208.854C91.6811 208.589 92.014 208.385 92.378 208.256C92.7419 208.127 93.1289 208.075 93.5139 208.105C93.8832 208.08 94.2536 208.137 94.5982 208.272C94.9428 208.407 95.2531 208.617 95.5066 208.887C95.7602 209.157 95.9507 209.479 96.0644 209.831C96.178 210.184 96.212 210.557 96.1639 210.924V217H98.3879V210.453C98.4359 209.849 98.3511 209.243 98.1396 208.676C97.9282 208.108 97.5951 207.594 97.1637 207.169C96.7324 206.744 96.2133 206.419 95.6429 206.216C95.0725 206.013 94.4646 205.938 93.8619 205.995C93.2216 205.962 92.5831 206.09 92.0046 206.366C91.426 206.643 90.9256 207.059 90.5489 207.578V206.219H88.3139V217H90.5379ZM100.87 211.621C100.853 212.365 100.988 213.105 101.266 213.795C101.545 214.486 101.961 215.112 102.49 215.636C103.019 216.16 103.648 216.571 104.341 216.843C105.034 217.116 105.775 217.244 106.519 217.221C107.501 217.236 108.47 216.99 109.326 216.509C110.182 216.027 110.895 215.328 111.393 214.481L109.753 213.291C109.431 213.862 108.96 214.334 108.39 214.659C107.821 214.983 107.174 215.147 106.519 215.133C105.696 215.179 104.888 214.905 104.263 214.367C103.639 213.829 103.248 213.07 103.172 212.25H111.539C111.602 211.909 111.632 211.563 111.629 211.217C111.655 210.527 111.539 209.839 111.288 209.196C111.037 208.553 110.656 207.968 110.17 207.479C109.683 206.989 109.101 206.604 108.46 206.349C107.818 206.094 107.131 205.973 106.441 205.995C105.699 205.974 104.96 206.105 104.271 206.381C103.582 206.657 102.957 207.071 102.434 207.599C101.912 208.126 101.504 208.756 101.234 209.447C100.965 210.139 100.841 210.879 100.87 211.621ZM103.228 210.588C103.359 209.845 103.754 209.174 104.34 208.698C104.926 208.223 105.664 207.975 106.418 208C107.147 207.974 107.858 208.226 108.407 208.706C108.956 209.186 109.301 209.857 109.372 210.583L103.228 210.588ZM113.437 214.731C113.915 215.53 114.602 216.184 115.423 216.624C116.244 217.063 117.17 217.271 118.1 217.225C120.391 217.225 122.368 215.956 122.368 213.991C122.368 211.936 120.841 211.172 118.493 210.599C116.91 210.217 116.112 209.993 116.112 209.173C116.112 208.473 116.831 208.027 117.898 208.027C118.446 208.024 118.986 208.157 119.469 208.414C119.953 208.671 120.365 209.044 120.669 209.5L122.163 208.22C121.699 207.519 121.064 206.946 120.319 206.557C119.573 206.168 118.741 205.974 117.9 205.994C115.7 205.994 113.913 207.252 113.913 209.206C113.913 211.34 115.564 212.07 117.877 212.586C119.46 212.945 120.123 213.192 120.123 213.986C120.123 214.716 119.258 215.176 118.102 215.176C117.486 215.182 116.879 215.02 116.348 214.707C115.817 214.394 115.381 213.942 115.088 213.4L113.437 214.731ZM124.237 214.731C124.715 215.53 125.402 216.184 126.223 216.624C127.044 217.063 127.97 217.271 128.9 217.225C131.191 217.225 133.168 215.956 133.168 213.991C133.168 211.936 131.641 211.172 129.293 210.599C127.71 210.217 126.912 209.993 126.912 209.173C126.912 208.473 127.631 208.027 128.698 208.027C129.246 208.023 129.787 208.156 130.272 208.413C130.756 208.67 131.169 209.043 131.473 209.5L132.967 208.22C132.502 207.518 131.867 206.946 131.121 206.556C130.374 206.167 129.541 205.973 128.7 205.994C126.5 205.994 124.713 207.252 124.713 209.206C124.713 211.34 126.364 212.07 128.677 212.586C130.26 212.945 130.923 213.192 130.923 213.986C130.923 214.716 130.058 215.176 128.902 215.176C128.286 215.181 127.681 215.019 127.15 214.706C126.62 214.393 126.185 213.942 125.892 213.4L124.237 214.731ZM140.424 209.375C140.411 210.414 140.607 211.444 141 212.406C141.393 213.367 141.976 214.24 142.712 214.972C143.449 215.704 144.326 216.281 145.29 216.668C146.254 217.055 147.285 217.244 148.324 217.225C149.666 217.241 150.989 216.907 152.164 216.258C153.338 215.608 154.324 214.664 155.024 213.519L153.26 212.294C152.732 213.125 152.002 213.809 151.138 214.282C150.274 214.754 149.304 214.999 148.319 214.994C147.587 215.008 146.859 214.87 146.182 214.59C145.505 214.311 144.893 213.894 144.384 213.367C143.875 212.841 143.481 212.215 143.224 211.528C142.968 210.842 142.856 210.11 142.895 209.379C142.852 208.651 142.959 207.922 143.21 207.238C143.461 206.553 143.851 205.928 144.355 205.401C144.858 204.874 145.466 204.457 146.138 204.175C146.811 203.893 147.534 203.753 148.263 203.764C149.246 203.759 150.213 204.011 151.068 204.496C151.923 204.981 152.637 205.681 153.137 206.527L154.968 205.247C154.267 204.102 153.282 203.157 152.108 202.506C150.933 201.855 149.611 201.518 148.268 201.53C147.233 201.514 146.206 201.705 145.247 202.094C144.287 202.482 143.416 203.059 142.684 203.791C141.953 204.523 141.375 205.394 140.987 206.354C140.599 207.313 140.407 208.34 140.424 209.375ZM156.6 213.934C156.6 216.045 158.431 217.225 160.767 217.225C161.417 217.255 162.064 217.123 162.65 216.841C163.236 216.558 163.743 216.135 164.125 215.608V217H166.3V210.25C166.3 207.633 164.38 205.994 161.347 205.994C160.48 206.014 159.627 206.22 158.846 206.598C158.066 206.976 157.375 207.517 156.821 208.184L158.221 209.577C158.604 209.127 159.076 208.762 159.607 208.504C160.139 208.247 160.719 208.104 161.309 208.083C161.648 208.042 161.991 208.072 162.318 208.171C162.645 208.269 162.948 208.435 163.207 208.656C163.467 208.878 163.678 209.151 163.827 209.458C163.976 209.765 164.059 210.1 164.072 210.441V211.025C163.212 210.665 162.286 210.493 161.354 210.52C158.527 210.52 156.6 211.913 156.6 213.934ZM158.846 213.855C158.846 212.687 160.014 212.215 161.418 212.215C162.332 212.2 163.238 212.376 164.08 212.732C164.066 213.106 163.977 213.473 163.818 213.812C163.659 214.15 163.433 214.454 163.154 214.703C162.876 214.953 162.549 215.143 162.195 215.264C161.841 215.385 161.466 215.433 161.093 215.405C159.819 215.405 158.842 214.833 158.842 213.855H158.846ZM171.8 217V211.126C171.8 208.689 173.35 208.06 174.54 208.06C174.99 208.059 175.435 208.142 175.854 208.307L176.09 206.263C175.616 206.085 175.114 205.993 174.608 205.993C174.025 205.972 173.449 206.121 172.95 206.423C172.451 206.725 172.051 207.167 171.8 207.693V206.222H169.565V217H171.8ZM177.056 211.553C177.017 212.286 177.129 213.02 177.384 213.708C177.64 214.397 178.033 215.026 178.54 215.557C179.047 216.088 179.657 216.51 180.333 216.797C181.009 217.084 181.737 217.229 182.471 217.225C183.2 217.27 183.93 217.139 184.599 216.843C185.267 216.547 185.855 216.095 186.312 215.525V217H188.536V201.188H186.312V207.688C185.855 207.118 185.267 206.666 184.599 206.37C183.93 206.074 183.2 205.943 182.471 205.988C181.743 205.972 181.019 206.105 180.344 206.381C179.67 206.657 179.06 207.069 178.552 207.591C178.044 208.113 177.649 208.735 177.392 209.416C177.135 210.098 177.021 210.825 177.058 211.553H177.056ZM182.739 207.993C183.209 207.983 183.677 208.068 184.113 208.243C184.55 208.418 184.946 208.68 185.279 209.013C185.612 209.346 185.873 209.742 186.049 210.179C186.224 210.615 186.309 211.083 186.299 211.553C186.312 212.029 186.23 212.504 186.057 212.948C185.885 213.392 185.625 213.797 185.293 214.139C184.961 214.482 184.564 214.754 184.126 214.94C183.687 215.127 183.216 215.224 182.739 215.225C182.267 215.221 181.802 215.122 181.37 214.934C180.937 214.745 180.548 214.471 180.225 214.128C179.902 213.785 179.651 213.38 179.489 212.937C179.326 212.495 179.255 212.024 179.28 211.553C179.258 211.088 179.332 210.624 179.496 210.188C179.661 209.753 179.914 209.356 180.238 209.023C180.562 208.689 180.952 208.425 181.382 208.248C181.812 208.071 182.275 207.984 182.74 207.993H182.739ZM191.117 214.731C191.595 215.53 192.281 216.184 193.103 216.624C193.924 217.063 194.849 217.271 195.779 217.225C198.07 217.225 200.047 215.956 200.047 213.991C200.047 211.936 198.52 211.172 196.172 210.599C194.589 210.217 193.791 209.993 193.791 209.173C193.791 208.473 194.51 208.027 195.577 208.027C196.125 208.023 196.666 208.156 197.15 208.413C197.634 208.67 198.047 209.044 198.351 209.5L199.845 208.22C199.38 207.518 198.745 206.946 197.998 206.557C197.252 206.168 196.418 205.975 195.577 205.996C193.377 205.996 191.59 207.254 191.59 209.208C191.59 211.342 193.241 212.072 195.554 212.588C197.137 212.947 197.8 213.194 197.8 213.988C197.8 214.718 196.935 215.178 195.779 215.178C195.162 215.182 194.556 215.019 194.025 214.704C193.495 214.389 193.061 213.935 192.769 213.392L191.117 214.731Z" fill="#11081A"/>
<g filter="url(#filter1_d_619_559)">
<path d="M295.608 239.713C295.886 239.704 296.155 239.614 296.383 239.455C296.61 239.295 296.787 239.073 296.891 238.815C296.994 238.557 297.02 238.275 296.966 238.002C296.912 237.73 296.779 237.479 296.585 237.28L274.365 214.425C274.17 214.228 273.921 214.094 273.649 214.04C273.378 213.986 273.096 214.016 272.841 214.124C272.586 214.232 272.37 214.415 272.22 214.648C272.07 214.88 271.993 215.153 272 215.43V249C271.994 249.276 272.071 249.548 272.222 249.78C272.372 250.012 272.589 250.194 272.843 250.302C273.098 250.409 273.379 250.438 273.651 250.384C273.922 250.331 274.171 250.197 274.365 250L281.136 243.039L285.281 253.127C285.349 253.298 285.451 253.453 285.58 253.584C285.709 253.715 285.863 253.819 286.033 253.89C286.203 253.96 286.385 253.996 286.569 253.996C286.753 253.995 286.935 253.958 287.104 253.886L290.945 252.212C291.287 252.056 291.555 251.773 291.692 251.423C291.83 251.074 291.827 250.684 291.683 250.337L287.321 239.713H295.608Z" fill="#0F0F0F" stroke="white" stroke-width="3"/>
</g>
</g>
</g>
<defs>
<filter id="filter0_d_619_559" x="-11.999" y="146" width="351" height="127" filterUnits="userSpaceOnUse" color-interpolation-filters="sRGB">
<feFlood flood-opacity="0" result="BackgroundImageFix"/>
<feColorMatrix in="SourceAlpha" type="matrix" values="0 0 0 0 0 0 0 0 0 0 0 0 0 0 0 0 0 0 127 0" result="hardAlpha"/>
<feOffset/>
<feGaussianBlur stdDeviation="15"/>
<feColorMatrix type="matrix" values="0 0 0 0 0 0 0 0 0 0 0 0 0 0 0 0 0 0 0.302 0"/>
<feBlend mode="normal" in2="BackgroundImageFix" result="effect1_dropShadow_619_559"/>
<feBlend mode="normal" in="SourceGraphic" in2="effect1_dropShadow_619_559" result="shape"/>
</filter>
<filter id="filter1_d_619_559" x="245.5" y="187.514" width="77.9941" height="92.9818" filterUnits="userSpaceOnUse" color-interpolation-filters="sRGB">
<feFlood flood-opacity="0" result="BackgroundImageFix"/>
<feColorMatrix in="SourceAlpha" type="matrix" values="0 0 0 0 0 0 0 0 0 0 0 0 0 0 0 0 0 0 127 0" result="hardAlpha"/>
<feOffset/>
<feGaussianBlur stdDeviation="12.5"/>
<feColorMatrix type="matrix" values="0 0 0 0 0 0 0 0 0 0 0 0 0 0 0 0 0 0 0.161 0"/>
<feBlend mode="normal" in2="BackgroundImageFix" result="effect1_dropShadow_619_559"/>
<feBlend mode="normal" in="SourceGraphic" in2="effect1_dropShadow_619_559" result="shape"/>
</filter>
<clipPath id="clip0_619_559">
<rect width="352" height="320" fill="white"/>
</clipPath>
</defs>
</svg>
